<svg version="1.1" width="1760.000000" height="1360.000000" xmlns="http://www.w3.org/2000/svg" xmlns:xlink="http://www.w3.org/1999/xlink" overflow="hidden"><g><defs><path d=" M 127.000000 -220.000000 L 127.000000 0.000000 L 93.000000 0.000000 L 93.000000 -220.000000 L 8.000000 -220.000000 L 8.000000 -248.000000 L 212.000000 -248.000000 L 212.000000 -220.000000 L 127.000000 -220.000000" id="E"/><path d=" M 101.000000 -251.000000 C 183.000000 -258.000000 194.000000 -164.000000 144.000000 -119.000000 L 82.000000 -64.000000 C 71.000000 -53.000000 59.000000 -42.000000 53.000000 -27.000000 L 182.000000 -27.000000 L 182.000000 0.000000 L 18.000000 0.000000 C 20.000000 -99.000000 146.000000 -94.000000 146.000000 -182.000000 C 146.000000 -210.000000 130.000000 -225.000000 101.000000 -225.000000 C 72.000000 -225.000000 55.000000 -210.000000 52.000000 -184.000000 L 20.000000 -187.000000 C 26.000000 -228.000000 54.000000 -247.000000 101.000000 -251.000000" id="F"/><path d=" M 80.000000 -196.000000 L 127.000000 -214.000000 L 134.000000 -191.000000 L 85.000000 -178.000000 L 117.000000 -134.000000 L 97.000000 -121.000000 L 70.000000 -167.000000 L 43.000000 -122.000000 L 22.000000 -134.000000 L 55.000000 -178.000000 L 6.000000 -191.000000 L 14.000000 -214.000000 L 61.000000 -195.000000 L 59.000000 -248.000000 L 82.000000 -248.000000" id="G"/><path d=" M 206.000000 0.000000 L 170.000000 0.000000 L 130.000000 -164.000000 L 89.000000 0.000000 L 53.000000 0.000000 L -1.000000 -190.000000 L 31.000000 -190.000000 L 70.000000 -26.000000 L 113.000000 -190.000000 L 147.000000 -190.000000 L 188.000000 -26.000000 L 230.000000 -190.000000 L 261.000000 -190.000000" id="H"/><g id="a"><use width="100.000000%" height="100.000000%" xlink:href="#E" transform="matrix(0.185185,0.000000,0.000000,0.185185,0.000000,0.000000)"></use><use width="100.000000%" height="100.000000%" xlink:href="#F" transform="matrix(0.185185,0.000000,0.000000,0.185185,40.555556,0.000000)"></use><use width="100.000000%" height="100.000000%" xlink:href="#G" transform="matrix(0.185185,0.000000,0.000000,0.185185,77.592593,0.000000)"></use><use width="100.000000%" height="100.000000%" xlink:href="#H" transform="matrix(0.185185,0.000000,0.000000,0.185185,103.518519,0.000000)"></use></g><path d=" M 27.000000 0.000000 L 27.000000 -27.000000 L 91.000000 -27.000000 L 91.000000 -217.000000 L 35.000000 -178.000000 L 35.000000 -207.000000 L 93.000000 -248.000000 L 122.000000 -248.000000 L 122.000000 -27.000000 L 183.000000 -27.000000 L 183.000000 0.000000 L 27.000000 0.000000" id="I"/><g id="b"><use width="100.000000%" height="100.000000%" xlink:href="#E" transform="matrix(0.185185,0.000000,0.000000,0.185185,0.000000,0.000000)"></use><use width="100.000000%" height="100.000000%" xlink:href="#I" transform="matrix(0.185185,0.000000,0.000000,0.185185,40.555556,0.000000)"></use><use width="100.000000%" height="100.000000%" xlink:href="#H" transform="matrix(0.185185,0.000000,0.000000,0.185185,77.592593,0.000000)"></use></g><path d=" M 30.000000 -248.000000 C 148.000000 -255.000000 246.000000 -240.000000 243.000000 -126.000000 C 240.000000 -48.000000 200.000000 0.000000 122.000000 0.000000 L 30.000000 0.000000 L 30.000000 -248.000000 Z M 63.000000 -27.000000 C 152.000000 -19.000000 209.000000 -43.000000 209.000000 -126.000000 C 209.000000 -209.000000 149.000000 -227.000000 63.000000 -221.000000 L 63.000000 -27.000000" id="J"/><path d=" M 266.000000 0.000000 L 226.000000 0.000000 L 170.000000 -210.000000 L 115.000000 0.000000 L 75.000000 0.000000 L 2.000000 -248.000000 L 37.000000 -248.000000 L 96.000000 -30.000000 L 111.000000 -94.000000 L 154.000000 -248.000000 L 186.000000 -248.000000 L 245.000000 -30.000000 L 304.000000 -248.000000 L 339.000000 -248.000000" id="K"/><path d=" M 33.000000 0.000000 L 33.000000 -248.000000 L 67.000000 -248.000000 L 67.000000 0.000000 L 33.000000 0.000000" id="L"/><g id="c"><use width="100.000000%" height="100.000000%" xlink:href="#J" transform="matrix(0.185185,0.000000,0.000000,0.185185,0.000000,0.000000)"></use><use width="100.000000%" height="100.000000%" xlink:href="#K" transform="matrix(0.185185,0.000000,0.000000,0.185185,47.962963,0.000000)"></use><use width="100.000000%" height="100.000000%" xlink:href="#L" transform="matrix(0.185185,0.000000,0.000000,0.185185,110.740741,0.000000)"></use></g><path d=" M 160.000000 -131.000000 C 195.000000 -126.000000 221.000000 -108.000000 221.000000 -70.000000 C 221.000000 17.000000 115.000000 -2.000000 30.000000 0.000000 L 30.000000 -248.000000 C 106.000000 -245.000000 207.000000 -265.000000 207.000000 -188.000000 C 207.000000 -155.000000 188.000000 -138.000000 160.000000 -131.000000 Z M 63.000000 -142.000000 C 113.000000 -143.000000 173.000000 -133.000000 173.000000 -184.000000 C 173.000000 -231.000000 110.000000 -220.000000 63.000000 -221.000000 L 63.000000 -142.000000 Z M 63.000000 -27.000000 C 118.000000 -29.000000 187.000000 -13.000000 187.000000 -72.000000 C 187.000000 -128.000000 117.000000 -114.000000 63.000000 -116.000000 L 63.000000 -27.000000" id="M"/><path d=" M 140.000000 -251.000000 C 221.000000 -251.000000 263.000000 -205.000000 263.000000 -125.000000 C 263.000000 -46.000000 219.000000 4.000000 140.000000 4.000000 C 59.000000 4.000000 17.000000 -45.000000 17.000000 -125.000000 C 17.000000 -205.000000 59.000000 -251.000000 140.000000 -251.000000 Z M 140.000000 -24.000000 C 203.000000 -24.000000 229.000000 -65.000000 229.000000 -125.000000 C 229.000000 -185.000000 200.000000 -224.000000 140.000000 -224.000000 C 79.000000 -224.000000 51.000000 -185.000000 51.000000 -125.000000 C 51.000000 -65.000000 79.000000 -25.000000 140.000000 -24.000000" id="N"/><path d=" M 30.000000 0.000000 L 30.000000 -248.000000 L 63.000000 -248.000000 L 63.000000 -27.000000 L 188.000000 -27.000000 L 188.000000 0.000000 L 30.000000 0.000000" id="O"/><g id="d"><use width="100.000000%" height="100.000000%" xlink:href="#M" transform="matrix(0.185185,0.000000,0.000000,0.185185,0.000000,0.000000)"></use><use width="100.000000%" height="100.000000%" xlink:href="#N" transform="matrix(0.185185,0.000000,0.000000,0.185185,44.444444,0.000000)"></use><use width="100.000000%" height="100.000000%" xlink:href="#O" transform="matrix(0.185185,0.000000,0.000000,0.185185,96.296296,0.000000)"></use><use width="100.000000%" height="100.000000%" xlink:href="#J" transform="matrix(0.185185,0.000000,0.000000,0.185185,133.333333,0.000000)"></use></g><g id="e"><use width="100.000000%" height="100.000000%" xlink:href="#E" transform="matrix(0.185185,0.000000,0.000000,0.185185,0.000000,0.000000)"></use><use width="100.000000%" height="100.000000%" xlink:href="#F" transform="matrix(0.185185,0.000000,0.000000,0.185185,40.555556,0.000000)"></use><use width="100.000000%" height="100.000000%" xlink:href="#H" transform="matrix(0.185185,0.000000,0.000000,0.185185,77.592593,0.000000)"></use></g><path d=" M 185.000000 -189.000000 C 180.000000 -237.000000 62.000000 -243.000000 61.000000 -187.000000 C 75.000000 -112.000000 219.000000 -173.000000 224.000000 -68.000000 C 227.000000 10.000000 103.000000 19.000000 49.000000 -13.000000 C 32.000000 -23.000000 21.000000 -39.000000 16.000000 -59.000000 L 49.000000 -66.000000 C 54.000000 -10.000000 190.000000 -3.000000 190.000000 -67.000000 C 190.000000 -145.000000 35.000000 -81.000000 28.000000 -185.000000 C 23.000000 -267.000000 173.000000 -269.000000 207.000000 -219.000000 C 212.000000 -212.000000 215.000000 -203.000000 218.000000 -194.000000" id="P" fill="#333333"/><path d=" M 100.000000 -194.000000 C 163.000000 -194.000000 186.000000 -152.000000 184.000000 -88.000000 L 49.000000 -88.000000 C 49.000000 -48.000000 63.000000 -21.000000 102.000000 -20.000000 C 128.000000 -19.000000 145.000000 -32.000000 151.000000 -49.000000 L 179.000000 -41.000000 C 168.000000 -13.000000 142.000000 4.000000 102.000000 4.000000 C 44.000000 4.000000 14.000000 -33.000000 15.000000 -96.000000 C 16.000000 -157.000000 41.000000 -194.000000 100.000000 -194.000000 Z M 152.000000 -113.000000 C 158.000000 -173.000000 76.000000 -190.000000 55.000000 -141.000000 C 52.000000 -134.000000 49.000000 -124.000000 49.000000 -113.000000 L 152.000000 -113.000000" id="Q" fill="#333333"/><path d=" M 177.000000 -190.000000 C 167.000000 -65.000000 218.000000 103.000000 67.000000 71.000000 C 44.000000 65.000000 29.000000 51.000000 23.000000 28.000000 L 55.000000 23.000000 C 70.000000 70.000000 155.000000 55.000000 144.000000 -5.000000 L 144.000000 -35.000000 C 133.000000 -14.000000 115.000000 1.000000 83.000000 1.000000 C 29.000000 1.000000 15.000000 -40.000000 15.000000 -95.000000 C 15.000000 -151.000000 31.000000 -192.000000 86.000000 -193.000000 C 115.000000 -194.000000 134.000000 -177.000000 145.000000 -158.000000 C 146.000000 -168.000000 145.000000 -181.000000 147.000000 -190.000000 L 177.000000 -190.000000 Z M 94.000000 -22.000000 C 130.000000 -22.000000 144.000000 -54.000000 144.000000 -95.000000 C 144.000000 -137.000000 130.000000 -170.000000 94.000000 -170.000000 C 55.000000 -170.000000 48.000000 -136.000000 48.000000 -95.000000 C 48.000000 -54.000000 54.000000 -22.000000 94.000000 -22.000000" id="R" fill="#333333"/><path d=" M 210.000000 -169.000000 C 143.000000 -166.000000 172.000000 -64.000000 166.000000 0.000000 L 135.000000 0.000000 L 135.000000 -121.000000 C 135.000000 -150.000000 130.000000 -171.000000 100.000000 -169.000000 C 34.000000 -165.000000 62.000000 -65.000000 56.000000 0.000000 L 25.000000 0.000000 L 24.000000 -190.000000 L 54.000000 -190.000000 C 55.000000 -180.000000 53.000000 -166.000000 56.000000 -158.000000 C 66.000000 -202.000000 155.000000 -208.000000 163.000000 -158.000000 C 174.000000 -179.000000 190.000000 -193.000000 221.000000 -194.000000 C 306.000000 -196.000000 268.000000 -75.000000 276.000000 0.000000 L 245.000000 0.000000 L 245.000000 -121.000000 C 245.000000 -150.000000 240.000000 -170.000000 210.000000 -169.000000" id="S" fill="#333333"/><path d=" M 117.000000 -194.000000 C 206.000000 -198.000000 170.000000 -78.000000 177.000000 0.000000 L 145.000000 0.000000 L 145.000000 -121.000000 C 145.000000 -152.000000 137.000000 -170.000000 106.000000 -169.000000 C 34.000000 -167.000000 62.000000 -67.000000 57.000000 0.000000 L 25.000000 0.000000 L 24.000000 -190.000000 L 54.000000 -190.000000 C 55.000000 -180.000000 53.000000 -166.000000 56.000000 -158.000000 C 67.000000 -180.000000 85.000000 -193.000000 117.000000 -194.000000" id="T" fill="#333333"/><path d=" M 59.000000 -47.000000 C 57.000000 -23.000000 77.000000 -18.000000 97.000000 -25.000000 L 97.000000 -1.000000 C 64.000000 9.000000 27.000000 4.000000 27.000000 -40.000000 L 27.000000 -167.000000 L 5.000000 -167.000000 L 5.000000 -190.000000 L 29.000000 -190.000000 L 38.000000 -233.000000 L 59.000000 -233.000000 L 59.000000 -190.000000 L 94.000000 -190.000000 L 94.000000 -167.000000 L 59.000000 -167.000000 L 59.000000 -47.000000" id="U" fill="#333333"/><path d=" M 141.000000 -36.000000 C 126.000000 -15.000000 110.000000 5.000000 73.000000 4.000000 C 37.000000 3.000000 15.000000 -17.000000 15.000000 -53.000000 C 14.000000 -117.000000 78.000000 -116.000000 140.000000 -116.000000 C 143.000000 -151.000000 131.000000 -170.000000 99.000000 -170.000000 C 75.000000 -169.000000 58.000000 -163.000000 57.000000 -139.000000 L 24.000000 -142.000000 C 29.000000 -179.000000 57.000000 -194.000000 100.000000 -194.000000 C 145.000000 -194.000000 172.000000 -174.000000 172.000000 -130.000000 L 172.000000 -48.000000 C 171.000000 -28.000000 179.000000 -16.000000 200.000000 -21.000000 L 200.000000 -1.000000 C 169.000000 8.000000 139.000000 -3.000000 141.000000 -36.000000 Z M 48.000000 -53.000000 C 48.000000 -33.000000 60.000000 -20.000000 80.000000 -20.000000 C 121.000000 -23.000000 143.000000 -49.000000 140.000000 -94.000000 C 97.000000 -92.000000 48.000000 -99.000000 48.000000 -53.000000" id="V" fill="#333333"/><path d=" M 24.000000 -231.000000 L 24.000000 -261.000000 L 56.000000 -261.000000 L 56.000000 -231.000000 L 24.000000 -231.000000 Z M 24.000000 0.000000 L 24.000000 -190.000000 L 56.000000 -190.000000 L 56.000000 0.000000 L 24.000000 0.000000" id="W" fill="#333333"/><path d=" M 100.000000 -194.000000 C 162.000000 -195.000000 185.000000 -157.000000 185.000000 -95.000000 C 186.000000 -32.000000 158.000000 4.000000 99.000000 4.000000 C 40.000000 4.000000 16.000000 -35.000000 15.000000 -95.000000 C 15.000000 -161.000000 43.000000 -194.000000 100.000000 -194.000000 Z M 99.000000 -20.000000 C 143.000000 -19.000000 152.000000 -51.000000 152.000000 -95.000000 C 152.000000 -138.000000 144.000000 -170.000000 101.000000 -170.000000 C 58.000000 -170.000000 48.000000 -138.000000 48.000000 -95.000000 C 48.000000 -52.000000 58.000000 -21.000000 99.000000 -20.000000" id="X" fill="#333333"/><g id="f"><use width="100.000000%" height="100.000000%" xlink:href="#P" transform="matrix(0.111111,0.000000,0.000000,0.111111,0.000000,0.000000)"></use><use width="100.000000%" height="100.000000%" xlink:href="#Q" transform="matrix(0.111111,0.000000,0.000000,0.111111,26.666667,0.000000)"></use><use width="100.000000%" height="100.000000%" xlink:href="#R" transform="matrix(0.111111,0.000000,0.000000,0.111111,48.888889,0.000000)"></use><use width="100.000000%" height="100.000000%" xlink:href="#S" transform="matrix(0.111111,0.000000,0.000000,0.111111,71.111111,0.000000)"></use><use width="100.000000%" height="100.000000%" xlink:href="#Q" transform="matrix(0.111111,0.000000,0.000000,0.111111,104.333333,0.000000)"></use><use width="100.000000%" height="100.000000%" xlink:href="#T" transform="matrix(0.111111,0.000000,0.000000,0.111111,126.555556,0.000000)"></use><use width="100.000000%" height="100.000000%" xlink:href="#U" transform="matrix(0.111111,0.000000,0.000000,0.111111,148.777778,0.000000)"></use><use width="100.000000%" height="100.000000%" xlink:href="#V" transform="matrix(0.111111,0.000000,0.000000,0.111111,159.888889,0.000000)"></use><use width="100.000000%" height="100.000000%" xlink:href="#U" transform="matrix(0.111111,0.000000,0.000000,0.111111,182.111111,0.000000)"></use><use width="100.000000%" height="100.000000%" xlink:href="#W" transform="matrix(0.111111,0.000000,0.000000,0.111111,193.222222,0.000000)"></use><use width="100.000000%" height="100.000000%" xlink:href="#X" transform="matrix(0.111111,0.000000,0.000000,0.111111,202.000000,0.000000)"></use><use width="100.000000%" height="100.000000%" xlink:href="#T" transform="matrix(0.111111,0.000000,0.000000,0.111111,224.222222,0.000000)"></use></g><path d=" M 140.000000 -251.000000 C 221.000000 -251.000000 263.000000 -205.000000 263.000000 -125.000000 C 263.000000 -53.000000 228.000000 -8.000000 163.000000 1.000000 C 170.000000 31.000000 193.000000 49.000000 232.000000 41.000000 L 232.000000 64.000000 C 177.000000 80.000000 137.000000 49.000000 129.000000 3.000000 C 56.000000 -3.000000 17.000000 -48.000000 17.000000 -125.000000 C 17.000000 -205.000000 59.000000 -251.000000 140.000000 -251.000000 Z M 140.000000 -24.000000 C 203.000000 -24.000000 229.000000 -65.000000 229.000000 -125.000000 C 229.000000 -185.000000 200.000000 -224.000000 140.000000 -224.000000 C 79.000000 -224.000000 51.000000 -185.000000 51.000000 -125.000000 C 51.000000 -65.000000 79.000000 -25.000000 140.000000 -24.000000" id="Y" fill="#333333"/><path d=" M 240.000000 0.000000 L 242.000000 -218.000000 C 219.000000 -142.000000 188.000000 -73.000000 162.000000 0.000000 L 139.000000 0.000000 L 58.000000 -218.000000 L 59.000000 0.000000 L 30.000000 0.000000 L 30.000000 -248.000000 L 74.000000 -248.000000 L 151.000000 -37.000000 C 172.000000 -112.000000 202.000000 -177.000000 227.000000 -248.000000 L 270.000000 -248.000000 L 270.000000 0.000000 L 240.000000 0.000000" id="Z" fill="#333333"/><g id="g"><use width="100.000000%" height="100.000000%" xlink:href="#Y" transform="matrix(0.111111,0.000000,0.000000,0.111111,0.000000,0.000000)"></use><use width="100.000000%" height="100.000000%" xlink:href="#P" transform="matrix(0.111111,0.000000,0.000000,0.111111,31.111111,0.000000)"></use><use width="100.000000%" height="100.000000%" xlink:href="#Z" transform="matrix(0.111111,0.000000,0.000000,0.111111,57.777778,0.000000)"></use></g><path d=" M 266.000000 0.000000 L 226.000000 0.000000 L 170.000000 -210.000000 L 115.000000 0.000000 L 75.000000 0.000000 L 2.000000 -248.000000 L 37.000000 -248.000000 L 96.000000 -30.000000 L 111.000000 -94.000000 L 154.000000 -248.000000 L 186.000000 -248.000000 L 245.000000 -30.000000 L 304.000000 -248.000000 L 339.000000 -248.000000" id="aa" fill="#333333"/><path d=" M 33.000000 0.000000 L 33.000000 -248.000000 L 67.000000 -248.000000 L 67.000000 0.000000 L 33.000000 0.000000" id="ab" fill="#333333"/><g id="h"><use width="100.000000%" height="100.000000%" xlink:href="#P" transform="matrix(0.111111,0.000000,0.000000,0.111111,0.000000,0.000000)"></use><use width="100.000000%" height="100.000000%" xlink:href="#aa" transform="matrix(0.111111,0.000000,0.000000,0.111111,26.666667,0.000000)"></use><use width="100.000000%" height="100.000000%" xlink:href="#ab" transform="matrix(0.111111,0.000000,0.000000,0.111111,64.333333,0.000000)"></use></g><path d=" M 137.000000 0.000000 L 103.000000 0.000000 L 2.000000 -248.000000 L 37.000000 -248.000000 L 120.000000 -30.000000 L 203.000000 -248.000000 L 239.000000 -248.000000" id="ac" fill="#333333"/><g id="i"><use width="100.000000%" height="100.000000%" xlink:href="#ac" transform="matrix(0.111111,0.000000,0.000000,0.111111,0.000000,0.000000)"></use><use width="100.000000%" height="100.000000%" xlink:href="#Q" transform="matrix(0.111111,0.000000,0.000000,0.111111,24.444444,0.000000)"></use><use width="100.000000%" height="100.000000%" xlink:href="#W" transform="matrix(0.111111,0.000000,0.000000,0.111111,46.666667,0.000000)"></use><use width="100.000000%" height="100.000000%" xlink:href="#T" transform="matrix(0.111111,0.000000,0.000000,0.111111,55.444444,0.000000)"></use></g><path d=" M 115.000000 -194.000000 C 170.000000 -193.000000 185.000000 -153.000000 185.000000 -96.000000 C 185.000000 -39.000000 169.000000 2.000000 115.000000 4.000000 C 84.000000 4.000000 66.000000 -9.000000 55.000000 -30.000000 L 56.000000 75.000000 L 24.000000 75.000000 L 23.000000 -190.000000 L 54.000000 -190.000000 L 56.000000 -160.000000 C 66.000000 -181.000000 84.000000 -194.000000 115.000000 -194.000000 Z M 107.000000 -20.000000 C 147.000000 -20.000000 152.000000 -54.000000 152.000000 -95.000000 C 152.000000 -136.000000 146.000000 -168.000000 107.000000 -169.000000 C 65.000000 -169.000000 56.000000 -137.000000 56.000000 -93.000000 C 56.000000 -50.000000 66.000000 -20.000000 107.000000 -20.000000" id="ad" fill="#333333"/><path d=" M 135.000000 -143.000000 C 132.000000 -177.000000 49.000000 -181.000000 48.000000 -143.000000 C 63.000000 -90.000000 163.000000 -131.000000 167.000000 -53.000000 C 171.000000 25.000000 17.000000 21.000000 10.000000 -45.000000 L 38.000000 -50.000000 C 42.000000 -14.000000 135.000000 -5.000000 136.000000 -50.000000 C 126.000000 -106.000000 23.000000 -65.000000 18.000000 -140.000000 C 14.000000 -197.000000 100.000000 -203.000000 140.000000 -182.000000 C 152.000000 -175.000000 161.000000 -163.000000 164.000000 -147.000000" id="ae" fill="#333333"/><g id="j"><use width="100.000000%" height="100.000000%" xlink:href="#Z" transform="matrix(0.111111,0.000000,0.000000,0.111111,0.000000,0.000000)"></use><use width="100.000000%" height="100.000000%" xlink:href="#V" transform="matrix(0.111111,0.000000,0.000000,0.111111,33.222222,0.000000)"></use><use width="100.000000%" height="100.000000%" xlink:href="#ad" transform="matrix(0.111111,0.000000,0.000000,0.111111,55.444444,0.000000)"></use><use width="100.000000%" height="100.000000%" xlink:href="#ae" transform="matrix(0.111111,0.000000,0.000000,0.111111,77.666667,0.000000)"></use></g><path d=" M 106.000000 -169.000000 C 34.000000 -169.000000 62.000000 -67.000000 57.000000 0.000000 L 25.000000 0.000000 L 25.000000 -261.000000 L 57.000000 -261.000000 L 56.000000 -158.000000 C 68.000000 -179.000000 84.000000 -194.000000 117.000000 -194.000000 C 206.000000 -194.000000 170.000000 -78.000000 177.000000 0.000000 L 145.000000 0.000000 L 145.000000 -121.000000 C 147.000000 -153.000000 137.000000 -170.000000 106.000000 -169.000000" id="af" fill="#333333"/><g id="k"><use width="100.000000%" height="100.000000%" xlink:href="#aa" transform="matrix(0.111111,0.000000,0.000000,0.111111,0.000000,0.000000)"></use><use width="100.000000%" height="100.000000%" xlink:href="#af" transform="matrix(0.111111,0.000000,0.000000,0.111111,37.666667,0.000000)"></use><use width="100.000000%" height="100.000000%" xlink:href="#W" transform="matrix(0.111111,0.000000,0.000000,0.111111,59.888889,0.000000)"></use><use width="100.000000%" height="100.000000%" xlink:href="#U" transform="matrix(0.111111,0.000000,0.000000,0.111111,68.666667,0.000000)"></use><use width="100.000000%" height="100.000000%" xlink:href="#Q" transform="matrix(0.111111,0.000000,0.000000,0.111111,79.777778,0.000000)"></use></g><path d=" M 114.000000 -163.000000 C 36.000000 -179.000000 61.000000 -72.000000 57.000000 0.000000 L 25.000000 0.000000 L 24.000000 -190.000000 L 54.000000 -190.000000 C 55.000000 -178.000000 53.000000 -161.000000 56.000000 -151.000000 C 62.000000 -178.000000 79.000000 -200.000000 114.000000 -192.000000 L 114.000000 -163.000000" id="ag" fill="#333333"/><g id="l"><use width="100.000000%" height="100.000000%" xlink:href="#Z" transform="matrix(0.111111,0.000000,0.000000,0.111111,0.000000,0.000000)"></use><use width="100.000000%" height="100.000000%" xlink:href="#V" transform="matrix(0.111111,0.000000,0.000000,0.111111,33.222222,0.000000)"></use><use width="100.000000%" height="100.000000%" xlink:href="#U" transform="matrix(0.111111,0.000000,0.000000,0.111111,55.444444,0.000000)"></use><use width="100.000000%" height="100.000000%" xlink:href="#U" transform="matrix(0.111111,0.000000,0.000000,0.111111,66.555556,0.000000)"></use><use width="100.000000%" height="100.000000%" xlink:href="#Q" transform="matrix(0.111111,0.000000,0.000000,0.111111,77.666667,0.000000)"></use><use width="100.000000%" height="100.000000%" xlink:href="#ag" transform="matrix(0.111111,0.000000,0.000000,0.111111,99.888889,0.000000)"></use></g><path d=" M 197.000000 0.000000 L 197.000000 -115.000000 L 63.000000 -115.000000 L 63.000000 0.000000 L 30.000000 0.000000 L 30.000000 -248.000000 L 63.000000 -248.000000 L 63.000000 -143.000000 L 197.000000 -143.000000 L 197.000000 -248.000000 L 231.000000 -248.000000 L 231.000000 0.000000 L 197.000000 0.000000" id="ah" fill="#333333"/><path d=" M 179.000000 -190.000000 L 93.000000 31.000000 C 79.000000 59.000000 56.000000 82.000000 12.000000 73.000000 L 12.000000 49.000000 C 51.000000 55.000000 65.000000 29.000000 76.000000 -1.000000 L 1.000000 -190.000000 L 35.000000 -190.000000 L 92.000000 -34.000000 L 146.000000 -190.000000 L 179.000000 -190.000000" id="ai" fill="#333333"/><g id="m"><use width="100.000000%" height="100.000000%" xlink:href="#ah" transform="matrix(0.111111,0.000000,0.000000,0.111111,0.000000,0.000000)"></use><use width="100.000000%" height="100.000000%" xlink:href="#ai" transform="matrix(0.111111,0.000000,0.000000,0.111111,28.777778,0.000000)"></use><use width="100.000000%" height="100.000000%" xlink:href="#ad" transform="matrix(0.111111,0.000000,0.000000,0.111111,48.777778,0.000000)"></use><use width="100.000000%" height="100.000000%" xlink:href="#Q" transform="matrix(0.111111,0.000000,0.000000,0.111111,71.000000,0.000000)"></use><use width="100.000000%" height="100.000000%" xlink:href="#ag" transform="matrix(0.111111,0.000000,0.000000,0.111111,93.222222,0.000000)"></use><use width="100.000000%" height="100.000000%" xlink:href="#W" transform="matrix(0.111111,0.000000,0.000000,0.111111,106.444444,0.000000)"></use><use width="100.000000%" height="100.000000%" xlink:href="#T" transform="matrix(0.111111,0.000000,0.000000,0.111111,115.222222,0.000000)"></use><use width="100.000000%" height="100.000000%" xlink:href="#U" transform="matrix(0.111111,0.000000,0.000000,0.111111,137.444444,0.000000)"></use><use width="100.000000%" height="100.000000%" xlink:href="#Q" transform="matrix(0.111111,0.000000,0.000000,0.111111,148.555556,0.000000)"></use><use width="100.000000%" height="100.000000%" xlink:href="#T" transform="matrix(0.111111,0.000000,0.000000,0.111111,170.777778,0.000000)"></use><use width="100.000000%" height="100.000000%" xlink:href="#ae" transform="matrix(0.111111,0.000000,0.000000,0.111111,193.000000,0.000000)"></use><use width="100.000000%" height="100.000000%" xlink:href="#W" transform="matrix(0.111111,0.000000,0.000000,0.111111,213.000000,0.000000)"></use><use width="100.000000%" height="100.000000%" xlink:href="#U" transform="matrix(0.111111,0.000000,0.000000,0.111111,221.777778,0.000000)"></use><use width="100.000000%" height="100.000000%" xlink:href="#W" transform="matrix(0.111111,0.000000,0.000000,0.111111,232.888889,0.000000)"></use><use width="100.000000%" height="100.000000%" xlink:href="#Q" transform="matrix(0.111111,0.000000,0.000000,0.111111,241.666667,0.000000)"></use><use width="100.000000%" height="100.000000%" xlink:href="#ae" transform="matrix(0.111111,0.000000,0.000000,0.111111,263.888889,0.000000)"></use></g><path d=" M 212.000000 -179.000000 C 202.000000 -207.000000 177.000000 -224.000000 139.000000 -224.000000 C 80.000000 -224.000000 52.000000 -184.000000 52.000000 -125.000000 C 52.000000 -65.000000 81.000000 -24.000000 141.000000 -24.000000 C 184.000000 -24.000000 203.000000 -48.000000 219.000000 -76.000000 L 246.000000 -62.000000 C 228.000000 -24.000000 195.000000 4.000000 139.000000 4.000000 C 59.000000 4.000000 22.000000 -46.000000 18.000000 -125.000000 C 12.000000 -229.000000 117.000000 -278.000000 205.000000 -236.000000 C 224.000000 -227.000000 236.000000 -210.000000 244.000000 -190.000000" id="aj" fill="#333333"/><path d=" M 96.000000 -169.000000 C 56.000000 -169.000000 48.000000 -136.000000 48.000000 -96.000000 C 48.000000 -56.000000 57.000000 -21.000000 96.000000 -21.000000 C 120.000000 -21.000000 137.000000 -35.000000 139.000000 -59.000000 L 171.000000 -57.000000 C 165.000000 -20.000000 140.000000 4.000000 97.000000 4.000000 C 38.000000 4.000000 21.000000 -37.000000 15.000000 -95.000000 C 5.000000 -188.000000 116.000000 -226.000000 162.000000 -159.000000 C 166.000000 -152.000000 167.000000 -145.000000 169.000000 -137.000000 L 137.000000 -134.000000 C 133.000000 -155.000000 121.000000 -169.000000 96.000000 -169.000000" id="ak" fill="#333333"/><path d=" M 24.000000 0.000000 L 24.000000 -261.000000 L 56.000000 -261.000000 L 56.000000 0.000000 L 24.000000 0.000000" id="al" fill="#333333"/><g id="n"><use width="100.000000%" height="100.000000%" xlink:href="#aj" transform="matrix(0.111111,0.000000,0.000000,0.111111,0.000000,0.000000)"></use><use width="100.000000%" height="100.000000%" xlink:href="#X" transform="matrix(0.111111,0.000000,0.000000,0.111111,28.777778,0.000000)"></use><use width="100.000000%" height="100.000000%" xlink:href="#ag" transform="matrix(0.111111,0.000000,0.000000,0.111111,51.000000,0.000000)"></use><use width="100.000000%" height="100.000000%" xlink:href="#U" transform="matrix(0.111111,0.000000,0.000000,0.111111,64.222222,0.000000)"></use><use width="100.000000%" height="100.000000%" xlink:href="#W" transform="matrix(0.111111,0.000000,0.000000,0.111111,75.333333,0.000000)"></use><use width="100.000000%" height="100.000000%" xlink:href="#ak" transform="matrix(0.111111,0.000000,0.000000,0.111111,84.111111,0.000000)"></use><use width="100.000000%" height="100.000000%" xlink:href="#V" transform="matrix(0.111111,0.000000,0.000000,0.111111,104.111111,0.000000)"></use><use width="100.000000%" height="100.000000%" xlink:href="#al" transform="matrix(0.111111,0.000000,0.000000,0.111111,126.333333,0.000000)"></use></g><path d=" M 84.000000 4.000000 C -5.000000 8.000000 30.000000 -112.000000 23.000000 -190.000000 L 55.000000 -190.000000 L 55.000000 -70.000000 C 55.000000 -39.000000 62.000000 -20.000000 94.000000 -21.000000 C 166.000000 -23.000000 139.000000 -122.000000 144.000000 -190.000000 L 175.000000 -190.000000 L 176.000000 0.000000 L 146.000000 0.000000 C 145.000000 -10.000000 147.000000 -25.000000 144.000000 -33.000000 C 133.000000 -11.000000 116.000000 3.000000 84.000000 4.000000" id="am" fill="#333333"/><path d=" M 101.000000 -234.000000 C 70.000000 -243.000000 59.000000 -224.000000 63.000000 -190.000000 L 101.000000 -190.000000 L 101.000000 -167.000000 L 63.000000 -167.000000 L 63.000000 0.000000 L 32.000000 0.000000 L 32.000000 -167.000000 L 5.000000 -167.000000 L 5.000000 -190.000000 L 32.000000 -190.000000 C 25.000000 -242.000000 49.000000 -272.000000 101.000000 -258.000000 L 101.000000 -234.000000" id="an" fill="#333333"/><g id="o"><use width="100.000000%" height="100.000000%" xlink:href="#P" transform="matrix(0.111111,0.000000,0.000000,0.111111,0.000000,0.000000)"></use><use width="100.000000%" height="100.000000%" xlink:href="#am" transform="matrix(0.111111,0.000000,0.000000,0.111111,26.666667,0.000000)"></use><use width="100.000000%" height="100.000000%" xlink:href="#ag" transform="matrix(0.111111,0.000000,0.000000,0.111111,48.888889,0.000000)"></use><use width="100.000000%" height="100.000000%" xlink:href="#an" transform="matrix(0.111111,0.000000,0.000000,0.111111,62.111111,0.000000)"></use><use width="100.000000%" height="100.000000%" xlink:href="#V" transform="matrix(0.111111,0.000000,0.000000,0.111111,73.222222,0.000000)"></use><use width="100.000000%" height="100.000000%" xlink:href="#ak" transform="matrix(0.111111,0.000000,0.000000,0.111111,95.444444,0.000000)"></use><use width="100.000000%" height="100.000000%" xlink:href="#Q" transform="matrix(0.111111,0.000000,0.000000,0.111111,115.444444,0.000000)"></use></g><g id="p"><use width="100.000000%" height="100.000000%" xlink:href="#P" transform="matrix(0.111111,0.000000,0.000000,0.111111,0.000000,0.000000)"></use><use width="100.000000%" height="100.000000%" xlink:href="#U" transform="matrix(0.111111,0.000000,0.000000,0.111111,26.666667,0.000000)"></use><use width="100.000000%" height="100.000000%" xlink:href="#ag" transform="matrix(0.111111,0.000000,0.000000,0.111111,37.777778,0.000000)"></use><use width="100.000000%" height="100.000000%" xlink:href="#am" transform="matrix(0.111111,0.000000,0.000000,0.111111,51.000000,0.000000)"></use><use width="100.000000%" height="100.000000%" xlink:href="#ak" transform="matrix(0.111111,0.000000,0.000000,0.111111,73.222222,0.000000)"></use><use width="100.000000%" height="100.000000%" xlink:href="#U" transform="matrix(0.111111,0.000000,0.000000,0.111111,93.222222,0.000000)"></use><use width="100.000000%" height="100.000000%" xlink:href="#am" transform="matrix(0.111111,0.000000,0.000000,0.111111,104.333333,0.000000)"></use><use width="100.000000%" height="100.000000%" xlink:href="#ag" transform="matrix(0.111111,0.000000,0.000000,0.111111,126.555556,0.000000)"></use><use width="100.000000%" height="100.000000%" xlink:href="#V" transform="matrix(0.111111,0.000000,0.000000,0.111111,139.777778,0.000000)"></use><use width="100.000000%" height="100.000000%" xlink:href="#al" transform="matrix(0.111111,0.000000,0.000000,0.111111,162.000000,0.000000)"></use></g><g id="q"><use width="100.000000%" height="100.000000%" xlink:href="#aj" transform="matrix(0.111111,0.000000,0.000000,0.111111,0.000000,0.000000)"></use><use width="100.000000%" height="100.000000%" xlink:href="#X" transform="matrix(0.111111,0.000000,0.000000,0.111111,28.777778,0.000000)"></use><use width="100.000000%" height="100.000000%" xlink:href="#T" transform="matrix(0.111111,0.000000,0.000000,0.111111,51.000000,0.000000)"></use><use width="100.000000%" height="100.000000%" xlink:href="#T" transform="matrix(0.111111,0.000000,0.000000,0.111111,73.222222,0.000000)"></use><use width="100.000000%" height="100.000000%" xlink:href="#Q" transform="matrix(0.111111,0.000000,0.000000,0.111111,95.444444,0.000000)"></use><use width="100.000000%" height="100.000000%" xlink:href="#ak" transform="matrix(0.111111,0.000000,0.000000,0.111111,117.666667,0.000000)"></use><use width="100.000000%" height="100.000000%" xlink:href="#U" transform="matrix(0.111111,0.000000,0.000000,0.111111,137.666667,0.000000)"></use><use width="100.000000%" height="100.000000%" xlink:href="#X" transform="matrix(0.111111,0.000000,0.000000,0.111111,148.777778,0.000000)"></use><use width="100.000000%" height="100.000000%" xlink:href="#S" transform="matrix(0.111111,0.000000,0.000000,0.111111,171.000000,0.000000)"></use><use width="100.000000%" height="100.000000%" xlink:href="#Q" transform="matrix(0.111111,0.000000,0.000000,0.111111,204.222222,0.000000)"></use></g><g id="r"><use width="100.000000%" height="100.000000%" xlink:href="#Z" transform="matrix(0.111111,0.000000,0.000000,0.111111,0.000000,0.000000)"></use><use width="100.000000%" height="100.000000%" xlink:href="#W" transform="matrix(0.111111,0.000000,0.000000,0.111111,33.222222,0.000000)"></use><use width="100.000000%" height="100.000000%" xlink:href="#ak" transform="matrix(0.111111,0.000000,0.000000,0.111111,42.000000,0.000000)"></use><use width="100.000000%" height="100.000000%" xlink:href="#ag" transform="matrix(0.111111,0.000000,0.000000,0.111111,62.000000,0.000000)"></use><use width="100.000000%" height="100.000000%" xlink:href="#X" transform="matrix(0.111111,0.000000,0.000000,0.111111,75.222222,0.000000)"></use><use width="100.000000%" height="100.000000%" xlink:href="#ae" transform="matrix(0.111111,0.000000,0.000000,0.111111,97.444444,0.000000)"></use><use width="100.000000%" height="100.000000%" xlink:href="#U" transform="matrix(0.111111,0.000000,0.000000,0.111111,117.444444,0.000000)"></use><use width="100.000000%" height="100.000000%" xlink:href="#ag" transform="matrix(0.111111,0.000000,0.000000,0.111111,128.555556,0.000000)"></use><use width="100.000000%" height="100.000000%" xlink:href="#am" transform="matrix(0.111111,0.000000,0.000000,0.111111,141.777778,0.000000)"></use><use width="100.000000%" height="100.000000%" xlink:href="#ak" transform="matrix(0.111111,0.000000,0.000000,0.111111,164.000000,0.000000)"></use><use width="100.000000%" height="100.000000%" xlink:href="#U" transform="matrix(0.111111,0.000000,0.000000,0.111111,184.000000,0.000000)"></use><use width="100.000000%" height="100.000000%" xlink:href="#am" transform="matrix(0.111111,0.000000,0.000000,0.111111,195.111111,0.000000)"></use><use width="100.000000%" height="100.000000%" xlink:href="#ag" transform="matrix(0.111111,0.000000,0.000000,0.111111,217.333333,0.000000)"></use><use width="100.000000%" height="100.000000%" xlink:href="#V" transform="matrix(0.111111,0.000000,0.000000,0.111111,230.555556,0.000000)"></use><use width="100.000000%" height="100.000000%" xlink:href="#al" transform="matrix(0.111111,0.000000,0.000000,0.111111,252.777778,0.000000)"></use></g><g id="s"><use width="100.000000%" height="100.000000%" xlink:href="#ab" transform="matrix(0.111111,0.000000,0.000000,0.111111,0.000000,0.000000)"></use><use width="100.000000%" height="100.000000%" xlink:href="#T" transform="matrix(0.111111,0.000000,0.000000,0.111111,11.111111,0.000000)"></use><use width="100.000000%" height="100.000000%" xlink:href="#U" transform="matrix(0.111111,0.000000,0.000000,0.111111,33.333333,0.000000)"></use><use width="100.000000%" height="100.000000%" xlink:href="#Q" transform="matrix(0.111111,0.000000,0.000000,0.111111,44.444444,0.000000)"></use><use width="100.000000%" height="100.000000%" xlink:href="#R" transform="matrix(0.111111,0.000000,0.000000,0.111111,66.666667,0.000000)"></use><use width="100.000000%" height="100.000000%" xlink:href="#ag" transform="matrix(0.111111,0.000000,0.000000,0.111111,88.888889,0.000000)"></use><use width="100.000000%" height="100.000000%" xlink:href="#W" transform="matrix(0.111111,0.000000,0.000000,0.111111,102.111111,0.000000)"></use><use width="100.000000%" height="100.000000%" xlink:href="#U" transform="matrix(0.111111,0.000000,0.000000,0.111111,110.888889,0.000000)"></use><use width="100.000000%" height="100.000000%" xlink:href="#ai" transform="matrix(0.111111,0.000000,0.000000,0.111111,122.000000,0.000000)"></use></g><path d=" M 233.000000 -177.000000 C 232.000000 -136.000000 210.000000 -113.000000 173.000000 -107.000000 L 243.000000 0.000000 L 205.000000 0.000000 L 140.000000 -103.000000 L 63.000000 -103.000000 L 63.000000 0.000000 L 30.000000 0.000000 L 30.000000 -248.000000 C 118.000000 -245.000000 235.000000 -269.000000 233.000000 -177.000000 Z M 63.000000 -129.000000 C 123.000000 -131.000000 200.000000 -116.000000 200.000000 -176.000000 C 200.000000 -237.000000 120.000000 -218.000000 63.000000 -221.000000 L 63.000000 -129.000000" id="ao" fill="#333333"/><g id="t"><use width="100.000000%" height="100.000000%" xlink:href="#ao" transform="matrix(0.111111,0.000000,0.000000,0.111111,0.000000,0.000000)"></use><use width="100.000000%" height="100.000000%" xlink:href="#Q" transform="matrix(0.111111,0.000000,0.000000,0.111111,28.777778,0.000000)"></use><use width="100.000000%" height="100.000000%" xlink:href="#R" transform="matrix(0.111111,0.000000,0.000000,0.111111,51.000000,0.000000)"></use><use width="100.000000%" height="100.000000%" xlink:href="#W" transform="matrix(0.111111,0.000000,0.000000,0.111111,73.222222,0.000000)"></use><use width="100.000000%" height="100.000000%" xlink:href="#ae" transform="matrix(0.111111,0.000000,0.000000,0.111111,82.000000,0.000000)"></use><use width="100.000000%" height="100.000000%" xlink:href="#U" transform="matrix(0.111111,0.000000,0.000000,0.111111,102.000000,0.000000)"></use><use width="100.000000%" height="100.000000%" xlink:href="#ag" transform="matrix(0.111111,0.000000,0.000000,0.111111,113.111111,0.000000)"></use><use width="100.000000%" height="100.000000%" xlink:href="#V" transform="matrix(0.111111,0.000000,0.000000,0.111111,126.333333,0.000000)"></use><use width="100.000000%" height="100.000000%" xlink:href="#U" transform="matrix(0.111111,0.000000,0.000000,0.111111,148.555556,0.000000)"></use><use width="100.000000%" height="100.000000%" xlink:href="#W" transform="matrix(0.111111,0.000000,0.000000,0.111111,159.666667,0.000000)"></use><use width="100.000000%" height="100.000000%" xlink:href="#X" transform="matrix(0.111111,0.000000,0.000000,0.111111,168.444444,0.000000)"></use><use width="100.000000%" height="100.000000%" xlink:href="#T" transform="matrix(0.111111,0.000000,0.000000,0.111111,190.666667,0.000000)"></use></g><path d=" M 160.000000 -131.000000 C 195.000000 -126.000000 221.000000 -108.000000 221.000000 -70.000000 C 221.000000 17.000000 115.000000 -2.000000 30.000000 0.000000 L 30.000000 -248.000000 C 106.000000 -245.000000 207.000000 -265.000000 207.000000 -188.000000 C 207.000000 -155.000000 188.000000 -138.000000 160.000000 -131.000000 Z M 63.000000 -142.000000 C 113.000000 -143.000000 173.000000 -133.000000 173.000000 -184.000000 C 173.000000 -231.000000 110.000000 -220.000000 63.000000 -221.000000 L 63.000000 -142.000000 Z M 63.000000 -27.000000 C 118.000000 -29.000000 187.000000 -13.000000 187.000000 -72.000000 C 187.000000 -128.000000 117.000000 -114.000000 63.000000 -116.000000 L 63.000000 -27.000000" id="ap" fill="#333333"/><g id="u"><use width="100.000000%" height="100.000000%" xlink:href="#ap" transform="matrix(0.111111,0.000000,0.000000,0.111111,0.000000,0.000000)"></use><use width="100.000000%" height="100.000000%" xlink:href="#ag" transform="matrix(0.111111,0.000000,0.000000,0.111111,26.666667,0.000000)"></use><use width="100.000000%" height="100.000000%" xlink:href="#V" transform="matrix(0.111111,0.000000,0.000000,0.111111,39.888889,0.000000)"></use><use width="100.000000%" height="100.000000%" xlink:href="#W" transform="matrix(0.111111,0.000000,0.000000,0.111111,62.111111,0.000000)"></use><use width="100.000000%" height="100.000000%" xlink:href="#T" transform="matrix(0.111111,0.000000,0.000000,0.111111,70.888889,0.000000)"></use></g><path d=" M 141.000000 0.000000 L 90.000000 -78.000000 L 38.000000 0.000000 L 4.000000 0.000000 L 72.000000 -98.000000 L 7.000000 -190.000000 L 42.000000 -190.000000 L 90.000000 -116.000000 L 137.000000 -190.000000 L 172.000000 -190.000000 L 108.000000 -98.000000 L 176.000000 0.000000 L 141.000000 0.000000" id="aq" fill="#333333"/><g id="v"><use width="100.000000%" height="100.000000%" xlink:href="#Q" transform="matrix(0.111111,0.000000,0.000000,0.111111,0.000000,0.000000)"></use><use width="100.000000%" height="100.000000%" xlink:href="#aq" transform="matrix(0.111111,0.000000,0.000000,0.111111,22.222222,0.000000)"></use><use width="100.000000%" height="100.000000%" xlink:href="#U" transform="matrix(0.111111,0.000000,0.000000,0.111111,42.222222,0.000000)"></use><use width="100.000000%" height="100.000000%" xlink:href="#ag" transform="matrix(0.111111,0.000000,0.000000,0.111111,53.333333,0.000000)"></use><use width="100.000000%" height="100.000000%" xlink:href="#V" transform="matrix(0.111111,0.000000,0.000000,0.111111,66.555556,0.000000)"></use><use width="100.000000%" height="100.000000%" xlink:href="#ak" transform="matrix(0.111111,0.000000,0.000000,0.111111,88.777778,0.000000)"></use><use width="100.000000%" height="100.000000%" xlink:href="#U" transform="matrix(0.111111,0.000000,0.000000,0.111111,108.777778,0.000000)"></use><use width="100.000000%" height="100.000000%" xlink:href="#W" transform="matrix(0.111111,0.000000,0.000000,0.111111,119.888889,0.000000)"></use><use width="100.000000%" height="100.000000%" xlink:href="#X" transform="matrix(0.111111,0.000000,0.000000,0.111111,128.666667,0.000000)"></use><use width="100.000000%" height="100.000000%" xlink:href="#T" transform="matrix(0.111111,0.000000,0.000000,0.111111,150.888889,0.000000)"></use></g><path d=" M 30.000000 0.000000 L 30.000000 -248.000000 L 217.000000 -248.000000 L 217.000000 -220.000000 L 63.000000 -220.000000 L 63.000000 -141.000000 L 207.000000 -141.000000 L 207.000000 -114.000000 L 63.000000 -114.000000 L 63.000000 -27.000000 L 225.000000 -27.000000 L 225.000000 0.000000 L 30.000000 0.000000" id="ar" fill="#333333"/><path d=" M 30.000000 -248.000000 C 117.000000 -247.000000 221.000000 -263.000000 221.000000 -173.000000 C 221.000000 -95.000000 144.000000 -93.000000 63.000000 -97.000000 L 63.000000 0.000000 L 30.000000 0.000000 L 30.000000 -248.000000 Z M 63.000000 -123.000000 C 120.000000 -123.000000 187.000000 -112.000000 187.000000 -173.000000 C 187.000000 -232.000000 119.000000 -220.000000 63.000000 -221.000000 L 63.000000 -123.000000" id="as" fill="#333333"/><g id="w"><use width="100.000000%" height="100.000000%" xlink:href="#ar" transform="matrix(0.111111,0.000000,0.000000,0.111111,0.000000,0.000000)"></use><use width="100.000000%" height="100.000000%" xlink:href="#as" transform="matrix(0.111111,0.000000,0.000000,0.111111,26.666667,0.000000)"></use><use width="100.000000%" height="100.000000%" xlink:href="#ab" transform="matrix(0.111111,0.000000,0.000000,0.111111,53.333333,0.000000)"></use></g><path d=" M 30.000000 -248.000000 C 148.000000 -255.000000 246.000000 -240.000000 243.000000 -126.000000 C 240.000000 -48.000000 200.000000 0.000000 122.000000 0.000000 L 30.000000 0.000000 L 30.000000 -248.000000 Z M 63.000000 -27.000000 C 152.000000 -19.000000 209.000000 -43.000000 209.000000 -126.000000 C 209.000000 -209.000000 149.000000 -227.000000 63.000000 -221.000000 L 63.000000 -27.000000" id="at" fill="#333333"/><path d=" M 33.000000 0.000000 L 33.000000 -38.000000 L 67.000000 -38.000000 L 67.000000 0.000000 L 33.000000 0.000000" id="au" fill="#333333"/><g id="x"><use width="100.000000%" height="100.000000%" xlink:href="#at" transform="matrix(0.111111,0.000000,0.000000,0.111111,0.000000,0.000000)"></use><use width="100.000000%" height="100.000000%" xlink:href="#W" transform="matrix(0.111111,0.000000,0.000000,0.111111,28.777778,0.000000)"></use><use width="100.000000%" height="100.000000%" xlink:href="#ae" transform="matrix(0.111111,0.000000,0.000000,0.111111,37.555556,0.000000)"></use><use width="100.000000%" height="100.000000%" xlink:href="#U" transform="matrix(0.111111,0.000000,0.000000,0.111111,57.555556,0.000000)"></use><use width="100.000000%" height="100.000000%" xlink:href="#X" transform="matrix(0.111111,0.000000,0.000000,0.111111,68.666667,0.000000)"></use><use width="100.000000%" height="100.000000%" xlink:href="#ag" transform="matrix(0.111111,0.000000,0.000000,0.111111,90.888889,0.000000)"></use><use width="100.000000%" height="100.000000%" xlink:href="#U" transform="matrix(0.111111,0.000000,0.000000,0.111111,104.111111,0.000000)"></use><use width="100.000000%" height="100.000000%" xlink:href="#au" transform="matrix(0.111111,0.000000,0.000000,0.111111,115.222222,0.000000)"></use></g><g id="y"><use width="100.000000%" height="100.000000%" xlink:href="#aj" transform="matrix(0.111111,0.000000,0.000000,0.111111,0.000000,0.000000)"></use><use width="100.000000%" height="100.000000%" xlink:href="#X" transform="matrix(0.111111,0.000000,0.000000,0.111111,28.777778,0.000000)"></use><use width="100.000000%" height="100.000000%" xlink:href="#ag" transform="matrix(0.111111,0.000000,0.000000,0.111111,51.000000,0.000000)"></use><use width="100.000000%" height="100.000000%" xlink:href="#ag" transform="matrix(0.111111,0.000000,0.000000,0.111111,64.222222,0.000000)"></use><use width="100.000000%" height="100.000000%" xlink:href="#Q" transform="matrix(0.111111,0.000000,0.000000,0.111111,77.444444,0.000000)"></use><use width="100.000000%" height="100.000000%" xlink:href="#ak" transform="matrix(0.111111,0.000000,0.000000,0.111111,99.666667,0.000000)"></use><use width="100.000000%" height="100.000000%" xlink:href="#U" transform="matrix(0.111111,0.000000,0.000000,0.111111,119.666667,0.000000)"></use><use width="100.000000%" height="100.000000%" xlink:href="#W" transform="matrix(0.111111,0.000000,0.000000,0.111111,130.777778,0.000000)"></use><use width="100.000000%" height="100.000000%" xlink:href="#X" transform="matrix(0.111111,0.000000,0.000000,0.111111,139.555556,0.000000)"></use><use width="100.000000%" height="100.000000%" xlink:href="#T" transform="matrix(0.111111,0.000000,0.000000,0.111111,161.777778,0.000000)"></use></g><g id="z"><use width="100.000000%" height="100.000000%" xlink:href="#Z" transform="matrix(0.111111,0.000000,0.000000,0.111111,0.000000,0.000000)"></use><use width="100.000000%" height="100.000000%" xlink:href="#X" transform="matrix(0.111111,0.000000,0.000000,0.111111,33.222222,0.000000)"></use><use width="100.000000%" height="100.000000%" xlink:href="#U" transform="matrix(0.111111,0.000000,0.000000,0.111111,55.444444,0.000000)"></use><use width="100.000000%" height="100.000000%" xlink:href="#W" transform="matrix(0.111111,0.000000,0.000000,0.111111,66.555556,0.000000)"></use><use width="100.000000%" height="100.000000%" xlink:href="#X" transform="matrix(0.111111,0.000000,0.000000,0.111111,75.333333,0.000000)"></use><use width="100.000000%" height="100.000000%" xlink:href="#T" transform="matrix(0.111111,0.000000,0.000000,0.111111,97.555556,0.000000)"></use></g><path d=" M 63.000000 -220.000000 L 63.000000 -128.000000 L 201.000000 -128.000000 L 201.000000 -100.000000 L 63.000000 -100.000000 L 63.000000 0.000000 L 30.000000 0.000000 L 30.000000 -248.000000 L 205.000000 -248.000000 L 205.000000 -220.000000 L 63.000000 -220.000000" id="av" fill="#333333"/><g id="A"><use width="100.000000%" height="100.000000%" xlink:href="#av" transform="matrix(0.111111,0.000000,0.000000,0.111111,0.000000,0.000000)"></use><use width="100.000000%" height="100.000000%" xlink:href="#am" transform="matrix(0.111111,0.000000,0.000000,0.111111,24.333333,0.000000)"></use><use width="100.000000%" height="100.000000%" xlink:href="#T" transform="matrix(0.111111,0.000000,0.000000,0.111111,46.555556,0.000000)"></use><use width="100.000000%" height="100.000000%" xlink:href="#ak" transform="matrix(0.111111,0.000000,0.000000,0.111111,68.777778,0.000000)"></use><use width="100.000000%" height="100.000000%" xlink:href="#U" transform="matrix(0.111111,0.000000,0.000000,0.111111,88.777778,0.000000)"></use><use width="100.000000%" height="100.000000%" xlink:href="#W" transform="matrix(0.111111,0.000000,0.000000,0.111111,99.888889,0.000000)"></use><use width="100.000000%" height="100.000000%" xlink:href="#X" transform="matrix(0.111111,0.000000,0.000000,0.111111,108.666667,0.000000)"></use><use width="100.000000%" height="100.000000%" xlink:href="#T" transform="matrix(0.111111,0.000000,0.000000,0.111111,130.888889,0.000000)"></use><use width="100.000000%" height="100.000000%" xlink:href="#V" transform="matrix(0.111111,0.000000,0.000000,0.111111,153.111111,0.000000)"></use><use width="100.000000%" height="100.000000%" xlink:href="#al" transform="matrix(0.111111,0.000000,0.000000,0.111111,175.333333,0.000000)"></use></g><path d=" M 108.000000 0.000000 L 70.000000 0.000000 L 1.000000 -190.000000 L 35.000000 -190.000000 L 89.000000 -25.000000 L 145.000000 -190.000000 L 179.000000 -190.000000" id="aw" fill="#333333"/><g id="B"><use width="100.000000%" height="100.000000%" xlink:href="#aj" transform="matrix(0.111111,0.000000,0.000000,0.111111,0.000000,0.000000)"></use><use width="100.000000%" height="100.000000%" xlink:href="#X" transform="matrix(0.111111,0.000000,0.000000,0.111111,28.777778,0.000000)"></use><use width="100.000000%" height="100.000000%" xlink:href="#T" transform="matrix(0.111111,0.000000,0.000000,0.111111,51.000000,0.000000)"></use><use width="100.000000%" height="100.000000%" xlink:href="#T" transform="matrix(0.111111,0.000000,0.000000,0.111111,73.222222,0.000000)"></use><use width="100.000000%" height="100.000000%" xlink:href="#Q" transform="matrix(0.111111,0.000000,0.000000,0.111111,95.444444,0.000000)"></use><use width="100.000000%" height="100.000000%" xlink:href="#ak" transform="matrix(0.111111,0.000000,0.000000,0.111111,117.666667,0.000000)"></use><use width="100.000000%" height="100.000000%" xlink:href="#U" transform="matrix(0.111111,0.000000,0.000000,0.111111,137.666667,0.000000)"></use><use width="100.000000%" height="100.000000%" xlink:href="#W" transform="matrix(0.111111,0.000000,0.000000,0.111111,148.777778,0.000000)"></use><use width="100.000000%" height="100.000000%" xlink:href="#aw" transform="matrix(0.111111,0.000000,0.000000,0.111111,157.555556,0.000000)"></use><use width="100.000000%" height="100.000000%" xlink:href="#W" transform="matrix(0.111111,0.000000,0.000000,0.111111,177.555556,0.000000)"></use><use width="100.000000%" height="100.000000%" xlink:href="#U" transform="matrix(0.111111,0.000000,0.000000,0.111111,186.333333,0.000000)"></use><use width="100.000000%" height="100.000000%" xlink:href="#ai" transform="matrix(0.111111,0.000000,0.000000,0.111111,197.444444,0.000000)"></use></g><path d=" M 127.000000 -220.000000 L 127.000000 0.000000 L 93.000000 0.000000 L 93.000000 -220.000000 L 8.000000 -220.000000 L 8.000000 -248.000000 L 212.000000 -248.000000 L 212.000000 -220.000000 L 127.000000 -220.000000" id="ax" fill="#333333"/><path d=" M 143.000000 0.000000 L 79.000000 -87.000000 L 56.000000 -68.000000 L 56.000000 0.000000 L 24.000000 0.000000 L 24.000000 -261.000000 L 56.000000 -261.000000 L 56.000000 -98.000000 L 139.000000 -190.000000 L 176.000000 -190.000000 L 99.000000 -108.000000 L 181.000000 0.000000 L 143.000000 0.000000" id="ay" fill="#333333"/><path d=" M 16.000000 -82.000000 L 16.000000 -110.000000 L 104.000000 -110.000000 L 104.000000 -82.000000 L 16.000000 -82.000000" id="az" fill="#333333"/><g id="C"><use width="100.000000%" height="100.000000%" xlink:href="#ax" transform="matrix(0.111111,0.000000,0.000000,0.111111,0.000000,0.000000)"></use><use width="100.000000%" height="100.000000%" xlink:href="#V" transform="matrix(0.111111,0.000000,0.000000,0.111111,19.888889,0.000000)"></use><use width="100.000000%" height="100.000000%" xlink:href="#ae" transform="matrix(0.111111,0.000000,0.000000,0.111111,42.111111,0.000000)"></use><use width="100.000000%" height="100.000000%" xlink:href="#ay" transform="matrix(0.111111,0.000000,0.000000,0.111111,62.111111,0.000000)"></use><use width="100.000000%" height="100.000000%" xlink:href="#az" transform="matrix(0.111111,0.000000,0.000000,0.111111,82.111111,0.000000)"></use><use width="100.000000%" height="100.000000%" xlink:href="#P" transform="matrix(0.111111,0.000000,0.000000,0.111111,95.333333,0.000000)"></use><use width="100.000000%" height="100.000000%" xlink:href="#ad" transform="matrix(0.111111,0.000000,0.000000,0.111111,122.000000,0.000000)"></use><use width="100.000000%" height="100.000000%" xlink:href="#Q" transform="matrix(0.111111,0.000000,0.000000,0.111111,144.222222,0.000000)"></use><use width="100.000000%" height="100.000000%" xlink:href="#ak" transform="matrix(0.111111,0.000000,0.000000,0.111111,166.444444,0.000000)"></use><use width="100.000000%" height="100.000000%" xlink:href="#W" transform="matrix(0.111111,0.000000,0.000000,0.111111,186.444444,0.000000)"></use><use width="100.000000%" height="100.000000%" xlink:href="#an" transform="matrix(0.111111,0.000000,0.000000,0.111111,195.222222,0.000000)"></use><use width="100.000000%" height="100.000000%" xlink:href="#W" transform="matrix(0.111111,0.000000,0.000000,0.111111,206.333333,0.000000)"></use><use width="100.000000%" height="100.000000%" xlink:href="#ak" transform="matrix(0.111111,0.000000,0.000000,0.111111,215.111111,0.000000)"></use></g><path d=" M 205.000000 0.000000 L 177.000000 -72.000000 L 64.000000 -72.000000 L 36.000000 0.000000 L 1.000000 0.000000 L 102.000000 -248.000000 L 140.000000 -248.000000 L 239.000000 0.000000 L 205.000000 0.000000 Z M 167.000000 -99.000000 L 120.000000 -222.000000 C 108.000000 -177.000000 89.000000 -140.000000 74.000000 -99.000000 L 167.000000 -99.000000" id="aA" fill="#333333"/><g id="D"><use width="100.000000%" height="100.000000%" xlink:href="#aA" transform="matrix(0.111111,0.000000,0.000000,0.111111,0.000000,0.000000)"></use><use width="100.000000%" height="100.000000%" xlink:href="#ak" transform="matrix(0.111111,0.000000,0.000000,0.111111,26.666667,0.000000)"></use><use width="100.000000%" height="100.000000%" xlink:href="#U" transform="matrix(0.111111,0.000000,0.000000,0.111111,46.666667,0.000000)"></use><use width="100.000000%" height="100.000000%" xlink:href="#W" transform="matrix(0.111111,0.000000,0.000000,0.111111,57.777778,0.000000)"></use><use width="100.000000%" height="100.000000%" xlink:href="#aw" transform="matrix(0.111111,0.000000,0.000000,0.111111,66.555556,0.000000)"></use><use width="100.000000%" height="100.000000%" xlink:href="#W" transform="matrix(0.111111,0.000000,0.000000,0.111111,86.555556,0.000000)"></use><use width="100.000000%" height="100.000000%" xlink:href="#U" transform="matrix(0.111111,0.000000,0.000000,0.111111,95.333333,0.000000)"></use><use width="100.000000%" height="100.000000%" xlink:href="#ai" transform="matrix(0.111111,0.000000,0.000000,0.111111,106.444444,0.000000)"></use></g></defs><path d=" M 850.219971 1154.400024 C 650.820007 1299.760010 428.619995 1334.500000 353.890015 1232.000000 C 279.149994 1129.500000 380.190002 928.549988 579.590027 783.200012 C 778.969971 637.840027 1001.190002 603.099976 1075.920044 705.599976 C 1150.650024 808.099976 1049.589966 1009.039978 850.219971 1154.400024 Z" stroke="#A3D977" stroke-width="2.000000" fill="#A3D977" fill-opacity="0.400000"/><path d=" M 1151.819946 1062.949951 C 880.200012 1062.949951 660.000000 968.270020 660.000000 851.469971 C 660.000000 734.669983 880.200012 640.000000 1151.819946 640.000000 C 1423.439941 640.000000 1643.619995 734.679993 1643.619995 851.469971 C 1643.619995 968.270020 1423.439941 1062.949951 1151.819946 1062.949951 Z" stroke="#FF8F80" stroke-width="2.000000" fill="#FF8F80" fill-opacity="0.400000"/><path d=" M 1229.800049 805.739990 C 1008.719971 966.919983 768.919983 1014.479980 694.200012 911.969971 C 619.460022 809.469971 738.099976 595.710022 959.200012 434.540009 C 1180.270020 273.359985 1420.079956 225.800003 1494.800049 328.299988 C 1569.540039 430.799988 1450.900024 644.559998 1229.800049 805.739990 Z" stroke="#FFCD78" stroke-width="2.000000" fill="#FFCD78" fill-opacity="0.400000"/><path d=" M 749.799988 448.899994 C 995.900024 610.000000 1135.520020 832.099976 1061.650024 944.950012 C 987.770020 1057.800049 728.369995 1018.679993 482.269989 857.570007 C 236.169998 696.469971 96.570000 474.369995 170.440002 361.519989 C 244.320007 248.669998 503.700012 287.799988 749.799988 448.899994 Z" stroke="#3278CC" stroke-width="2.000000" fill="#3278CC" fill-opacity="0.400000"/><path d=" M 1021.750000 472.350006 C 1121.469971 726.820007 1095.829956 974.830017 964.500000 1026.290039 C 833.159973 1077.739990 645.859985 913.169983 546.150024 658.690002 C 446.429993 404.230011 472.049988 156.220001 603.400024 104.760002 C 734.729980 53.290001 922.039978 217.860001 1021.750000 472.339996 Z" stroke="#58D8D9" stroke-width="2.000000" fill="#58D8D9" fill-opacity="0.400000"/><path d=" M 332.679993 1160.000000 L 577.080017 1160.000000 L 577.080017 1219.380005 L 332.700012 1219.380005 Z" stroke="#000000" stroke-width="2.000000" stroke-opacity="0.000000" fill="#FFFFFF" fill-opacity="0.000000"/><use width="100.000000%" height="100.000000%" xlink:href="#a" transform="matrix(1.000000,0.000000,0.000000,1.000000,379.437957,1218.333333)"></use><path d=" M 1480.000000 804.460022 L 1620.000000 804.460022 L 1620.000000 870.000000 L 1480.000000 870.000000 Z" stroke="#000000" stroke-width="2.000000" stroke-opacity="0.000000" fill="#FFFFFF" fill-opacity="0.000000"/><use width="100.000000%" height="100.000000%" xlink:href="#b" transform="matrix(1.000000,0.000000,0.000000,1.000000,1487.222222,862.791423)"></use><path d=" M 577.099976 112.750000 L 728.140015 112.750000 L 728.140015 184.690002 L 577.099976 184.690002 Z" stroke="#000000" stroke-width="2.000000" stroke-opacity="0.000000" fill="#FFFFFF" fill-opacity="0.000000"/><use width="100.000000%" height="100.000000%" xlink:href="#c" transform="matrix(1.000000,0.000000,0.000000,1.000000,588.460671,171.088003)"></use><path d=" M 195.250000 336.160004 L 375.250000 336.160004 L 375.250000 390.000000 L 195.250000 390.000000 Z" stroke="#000000" stroke-width="2.000000" stroke-opacity="0.000000" fill="#FFFFFF" fill-opacity="0.000000"/><use width="100.000000%" height="100.000000%" xlink:href="#d" transform="matrix(1.000000,0.000000,0.000000,1.000000,194.597645,394.492827)"></use><path d=" M 1341.300049 318.079987 L 1461.300049 318.079987 L 1461.300049 408.079987 L 1341.300049 408.079987 Z" stroke="#000000" stroke-width="2.000000" stroke-opacity="0.000000" fill="#FFFFFF" fill-opacity="0.000000"/><use width="100.000000%" height="100.000000%" xlink:href="#e" transform="matrix(1.000000,0.000000,0.000000,1.000000,1338.531176,376.913080)"></use><path d=" M 1240.000000 1040.000000 L 1334.130005 1040.000000 L 1334.130005 1080.829956 L 1240.000000 1080.829956 Z M 1080.000000 680.000000 L 1341.300049 680.000000 L 1341.300049 720.000000 L 1080.000000 720.000000 Z" stroke="#000000" stroke-width="2.000000" stroke-opacity="0.000000" fill="#FFFFFF" fill-opacity="0.000000"/><use width="100.000000%" height="100.000000%" xlink:href="#f" transform="matrix(1.000000,0.000000,0.000000,1.000000,1087.777778,717.000000)"></use><path d=" M 400.000000 960.000000 L 661.299988 960.000000 L 661.299988 1000.000000 L 400.000000 1000.000000 Z" stroke="#000000" stroke-width="2.000000" stroke-opacity="0.000000" fill="#FFFFFF" fill-opacity="0.000000"/><use width="100.000000%" height="100.000000%" xlink:href="#g" transform="matrix(1.000000,0.000000,0.000000,1.000000,485.500000,997.000000)"></use><path d=" M 620.000000 1060.400024 L 881.299988 1060.400024 L 881.299988 1100.400024 L 620.000000 1100.400024 Z" stroke="#000000" stroke-width="2.000000" stroke-opacity="0.000000" fill="#FFFFFF" fill-opacity="0.000000"/><use width="100.000000%" height="100.000000%" xlink:href="#h" transform="matrix(1.000000,0.000000,0.000000,1.000000,713.277778,1097.402550)"></use><path d=" M 400.000000 1060.400024 L 661.299988 1060.400024 L 661.299988 1100.400024 L 400.000000 1100.400024 Z" stroke="#000000" stroke-width="2.000000" stroke-opacity="0.000000" fill="#FFFFFF" fill-opacity="0.000000"/><use width="100.000000%" height="100.000000%" xlink:href="#i" transform="matrix(1.000000,0.000000,0.000000,1.000000,437.777778,1097.402550)"></use><use width="100.000000%" height="100.000000%" xlink:href="#j" transform="matrix(1.000000,0.000000,0.000000,1.000000,526.555556,1097.402550)"></use><path d=" M 1100.000000 435.839996 L 1380.000000 435.839996 L 1380.000000 535.869995 L 1100.000000 535.869995 Z" stroke="#000000" stroke-width="2.000000" stroke-opacity="0.000000" fill="#FFFFFF" fill-opacity="0.000000"/><use width="100.000000%" height="100.000000%" xlink:href="#k" transform="matrix(1.000000,0.000000,0.000000,1.000000,1127.388889,472.839354)"></use><use width="100.000000%" height="100.000000%" xlink:href="#l" transform="matrix(1.000000,0.000000,0.000000,1.000000,1240.500000,472.839354)"></use><use width="100.000000%" height="100.000000%" xlink:href="#m" transform="matrix(1.000000,0.000000,0.000000,1.000000,1098.555556,520.839354)"></use><path d=" M 1156.400024 870.000000 L 1417.719971 870.000000 L 1417.719971 910.000000 L 1156.420044 910.000000 Z" stroke="#000000" stroke-width="2.000000" stroke-opacity="0.000000" fill="#FFFFFF" fill-opacity="0.000000"/><use width="100.000000%" height="100.000000%" xlink:href="#n" transform="matrix(1.000000,0.000000,0.000000,1.000000,1219.854961,907.000000)"></use><use width="100.000000%" height="100.000000%" xlink:href="#o" transform="matrix(1.000000,0.000000,0.000000,1.000000,1218.577184,955.000000)"></use><path d=" M 502.880005 210.000000 L 762.880005 210.000000 L 762.880005 300.000000 L 502.880005 300.000000 Z" stroke="#000000" stroke-width="2.000000" stroke-opacity="0.000000" fill="#FFFFFF" fill-opacity="0.000000"/><use width="100.000000%" height="100.000000%" xlink:href="#p" transform="matrix(1.000000,0.000000,0.000000,1.000000,547.489131,247.000000)"></use><use width="100.000000%" height="100.000000%" xlink:href="#q" transform="matrix(1.000000,0.000000,0.000000,1.000000,519.655798,295.000000)"></use><path d=" M 680.340027 325.299988 L 940.340027 325.299988 L 940.340027 431.299988 L 680.340027 431.299988 Z" stroke="#000000" stroke-width="2.000000" stroke-opacity="0.000000" fill="#FFFFFF" fill-opacity="0.000000"/><use width="100.000000%" height="100.000000%" xlink:href="#r" transform="matrix(1.000000,0.000000,0.000000,1.000000,679.565426,362.305351)"></use><use width="100.000000%" height="100.000000%" xlink:href="#s" transform="matrix(1.000000,0.000000,0.000000,1.000000,739.343204,410.305351)"></use><path d=" M 762.880005 740.000000 L 1024.180054 740.000000 L 1024.180054 780.000000 L 762.900024 780.000000 Z" stroke="#000000" stroke-width="2.000000" stroke-opacity="0.000000" fill="#FFFFFF" fill-opacity="0.000000"/><use width="100.000000%" height="100.000000%" xlink:href="#t" transform="matrix(1.000000,0.000000,0.000000,1.000000,787.433576,777.000000)"></use><path d=" M 786.469971 840.000000 L 973.530029 840.000000 L 973.530029 940.000000 L 786.469971 940.000000 Z" stroke="#000000" stroke-width="2.000000" stroke-opacity="0.000000" fill="#FFFFFF" fill-opacity="0.000000"/><use width="100.000000%" height="100.000000%" xlink:href="#u" transform="matrix(1.000000,0.000000,0.000000,1.000000,833.911948,877.000000)"></use><use width="100.000000%" height="100.000000%" xlink:href="#v" transform="matrix(1.000000,0.000000,0.000000,1.000000,793.911948,925.000000)"></use><path d=" M 522.619995 561.340027 L 782.619995 561.340027 L 782.619995 667.340027 L 522.619995 667.340027 Z" stroke="#000000" stroke-width="2.000000" stroke-opacity="0.000000" fill="#FFFFFF" fill-opacity="0.000000"/><use width="100.000000%" height="100.000000%" xlink:href="#w" transform="matrix(1.000000,0.000000,0.000000,1.000000,551.671345,598.336648)"></use><use width="100.000000%" height="100.000000%" xlink:href="#x" transform="matrix(1.000000,0.000000,0.000000,1.000000,627.226901,598.336648)"></use><use width="100.000000%" height="100.000000%" xlink:href="#y" transform="matrix(1.000000,0.000000,0.000000,1.000000,560.615790,646.336648)"></use><path d=" M 468.140015 390.000000 L 728.140015 390.000000 L 728.140015 544.000000 L 468.140015 544.000000 Z" stroke="#000000" stroke-width="2.000000" stroke-opacity="0.000000" fill="#FFFFFF" fill-opacity="0.000000"/><g><use width="100.000000%" height="100.000000%" xlink:href="#z" transform="matrix(1.000000,0.000000,0.000000,1.000000,538.252390,451.000000)"></use><use width="100.000000%" height="100.000000%" xlink:href="#y" transform="matrix(1.000000,0.000000,0.000000,1.000000,506.141278,499.000000)"></use></g><path d=" M 195.250000 435.839996 L 455.250000 435.839996 L 455.250000 541.840027 L 195.250000 541.840027 Z" stroke="#000000" stroke-width="2.000000" stroke-opacity="0.000000" fill="#FFFFFF" fill-opacity="0.000000"/><g><use width="100.000000%" height="100.000000%" xlink:href="#A" transform="matrix(1.000000,0.000000,0.000000,1.000000,233.190238,472.839354)"></use><use width="100.000000%" height="100.000000%" xlink:href="#B" transform="matrix(1.000000,0.000000,0.000000,1.000000,216.523571,520.839354)"></use></g><path d=" M 268.540009 614.000000 L 528.539978 614.000000 L 528.539978 720.000000 L 268.540009 720.000000 Z" stroke="#000000" stroke-width="2.000000" stroke-opacity="0.000000" fill="#FFFFFF" fill-opacity="0.000000"/><g><use width="100.000000%" height="100.000000%" xlink:href="#C" transform="matrix(1.000000,0.000000,0.000000,1.000000,280.986553,651.000000)"></use><use width="100.000000%" height="100.000000%" xlink:href="#D" transform="matrix(1.000000,0.000000,0.000000,1.000000,335.319887,699.000000)"></use></g></g></svg>