<svg xmlns="http://www.w3.org/2000/svg" xmlns:xlink="http://www.w3.org/1999/xlink" xmlns:lucid="lucid" width="951.33" height="571.56"><g transform="translate(-33.66666666666663 6.399485193881116)" lucid:page-tab-id="0_0"><path d="M970.5 323.9h-40v-3h37v-299H578.35v-3H970.5zm-482.95-302H172.17v35.77h-3V18.9h318.38z" fill="#ef8d22"/><path d="M930.54 323.9H929v-3h1.54zM170.67 54.5l8.9-15.02 2.57 1.52-11.47 19.4L159.2 41l2.58-1.52z" fill="#ef8d22"/><path d="M510.83 258.67h-3V232.7h3zm0-47.57h-3v-27.2h3z" fill="#d050b4"/><path d="M510.83 183.94h-3v-1.54h3zM520.8 242l-11.47 19.4-11.47-19.4 2.58-1.52 8.9 15.03 8.88-15.02z" fill="#d050b4"/><use xlink:href="#a" transform="matrix(1,0,0,1,461.9833333333333,211.10051480611884) translate(0 14.4)"/><path d="M621.08 140.67h42.25V322.4H766" stroke="#338221" stroke-width="2" fill="none"/><path d="M621.75 140.67l-15.15 14.85-14.85-14.85 14.85-14.85z" fill="#fff"/><path d="M623.18 140.67l-16.6 16.25-16.25-16.25 16.26-16.26zm-30.02 0l13.44 13.44 13.72-13.43-13.72-13.45zM767 323.4h-1.03v-2H767z" fill="#338221"/><use xlink:href="#b" transform="matrix(1,0,0,1,590.3333333333333,144.6666666666666) translate(0 14.4)"/><use xlink:href="#b" transform="matrix(1,0,0,1,757,296.8005148061188) translate(0 14.4)"/><path d="M397.58 99.08h-144.9" stroke="#338221" stroke-width="2" fill="none"/><path d="M426.92 99.08l-14.85 14.85-15.15-14.85 15.15-14.85z" fill="#fff"/><path d="M428.33 99.08l-16.25 16.26-16.6-16.26 16.6-16.25zm-29.98 0l13.7 13.44 13.45-13.44-13.44-13.44zM252.7 100.08h-1.03v-2h1.02z" fill="#338221"/><use xlink:href="#b" transform="matrix(1,0,0,1,418.3333333333333,73.48283282738443) translate(0 14.4)"/><use xlink:href="#b" transform="matrix(1,0,0,1,250.66666666666666,103.08283282738442) translate(0 14.4)"/><path d="M848 185.13v74.77M858.18 202.56L848 185.36l-10.18 17.2" stroke="#ef8d22" stroke-width="3" fill="none"/><path d="M849.5 261.4h-3v-1.54h3z" fill="#ef8d22"/><path d="M766 99.07H621.08" stroke="#338221" stroke-width="2" fill="none"/><path d="M767 100.07h-1.03v-2H767z" fill="#338221"/><path d="M621.75 99.07l-15.15 14.85-14.85-14.85 14.85-14.85z" fill="#fff"/><path d="M623.18 99.07l-16.6 16.25-16.25-16.25L606.6 82.8zm-30.02 0l13.44 13.44 13.72-13.43-13.72-13.44z" fill="#338221"/><use xlink:href="#c" transform="matrix(1,0,0,1,740.8036958633169,73.46718147278555) translate(0 14.4)"/><use xlink:href="#b" transform="matrix(1,0,0,1,590.3333333333333,103.06718147278556) translate(0 14.4)"/><path d="M389.83 219.17v65.33h37v3h-40v-65.33h-67.55v-3zm-166.45 0v3h-54.2v-37.04h3v34.04z" fill="#d050b4"/><path d="M428.33 287.5h-1.54v-3h1.53zM182.14 201.8l-2.58 1.53-8.9-15.04-8.88 15.03-2.6-1.53 11.5-19.4z" fill="#d050b4"/><use xlink:href="#d" transform="matrix(1,0,0,1,223.38333333333333,209.86666666666665) translate(0 14.4)"/><use xlink:href="#e" transform="matrix(1,0,0,1,223.38333333333333,209.86666666666665) translate(5 14.4)"/><path d="M849.5 58.9h-3v-37H578.35v-3H849.5zm-361.95-37H172.17v35.77h-3V18.9h318.38z" fill="#ef8d22"/><path d="M849.5 60.4h-3v-1.54h3zM170.67 54.5l8.9-15.02 2.57 1.52-11.47 19.4L159.2 41l2.58-1.52z" fill="#ef8d22"/><use xlink:href="#f" transform="matrix(1,0,0,1,487.5538661468487,9.600514806118884) translate(0 14.4)"/><use xlink:href="#g" transform="matrix(1,0,0,1,487.5538661468487,9.600514806118884) translate(43.900000000000006 14.4)"/><path d="M88.17 122.9h-37v297.5h350.27v3H48.17V119.9h40zM849.5 423.4H498.2v-3h348.3v-34.27h3z" fill="#ef8d22"/><path d="M89.67 122.9h-1.54v-3h1.54zM859.47 402.8l-2.58 1.53-8.9-15.04-8.9 15.03-2.57-1.53L848 383.4z" fill="#ef8d22"/><use xlink:href="#f" transform="matrix(1,0,0,1,401.4425823133123,411.10051480611884) translate(0 14.4)"/><use xlink:href="#h" transform="matrix(1,0,0,1,401.4425823133123,411.10051480611884) translate(43.900000000000006 14.4)"/><path d="M429.33 272.4c0-5.52 4.48-10 10-10h140c5.53 0 10 4.48 10 10v100c0 5.52-4.47 10-10 10h-140c-5.52 0-10-4.48-10-10z" stroke="#0c7cba" stroke-width="2" fill="#c1e4f7" fill-opacity=".53"/><use xlink:href="#i" transform="matrix(1,0,0,1,437.3333333333333,270.40051480611885) translate(35.574999999999996 55.6)"/><path d="M90.67 71.4c0-5.52 4.47-10 10-10h140c5.52 0 10 4.48 10 10v100c0 5.52-4.48 10-10 10h-140c-5.53 0-10-4.48-10-10z" stroke="#338221" stroke-width="2" fill="#5fab4e" fill-opacity=".34"/><use xlink:href="#j" transform="matrix(1,0,0,1,98.66666666666663,69.40051480611888) translate(31.549999999999997 55.6)"/><path d="M429.33 71.4c0-5.52 4.48-10 10-10h140c5.53 0 10 4.48 10 10v100c0 5.52-4.47 10-10 10h-140c-5.52 0-10-4.48-10-10z" stroke="#0c7cba" stroke-width="2" fill="#c1e4f7" fill-opacity=".53"/><use xlink:href="#k" transform="matrix(1,0,0,1,437.3333333333333,69.40051480611888) translate(38.55 55.6)"/><path d="M768 272.4c0-5.52 4.48-10 10-10h140c5.52 0 10 4.48 10 10v100c0 5.52-4.48 10-10 10H778c-5.52 0-10-4.48-10-10z" stroke="#338221" stroke-width="2" fill="#5fab4e" fill-opacity=".34"/><use xlink:href="#l" transform="matrix(1,0,0,1,776,270.40051480611885) translate(41.025 55.6)"/><path d="M768 71.4c0-5.52 4.48-10 10-10h140c5.52 0 10 4.48 10 10v100c0 5.52-4.48 10-10 10H778c-5.52 0-10-4.48-10-10z" stroke="#338221" stroke-width="2" fill="#5fab4e" fill-opacity=".34"/><use xlink:href="#m" transform="matrix(1,0,0,1,776,69.40051480611888) translate(25.099999999999994 55.6)"/><use xlink:href="#n" transform="matrix(1,0,0,1,776,69.40051480611888) translate(70.1 55.6)"/><path d="M90.67 272.4c0-5.52 4.47-10 10-10h140c5.52 0 10 4.48 10 10v100c0 5.52-4.48 10-10 10h-140c-5.53 0-10-4.48-10-10z" stroke="#338221" stroke-width="2" fill="#5fab4e" fill-opacity=".34"/><use xlink:href="#o" transform="matrix(1,0,0,1,98.66666666666663,270.40051480611885) translate(21.574999999999996 55.6)"/><path d="M397.58 143H359v73.52l-2.18.35-2 1.46-.8 2.42.18 1.1 1.46 2 3.34 1.1V287H252.67v-2H357v-58.6l-2.57-.85-2.12-2.9-.33-2.06 1.14-3.5 2.92-2.13.98-.15V141h40.58z" fill="#338221"/><path d="M252.7 287h-1.03v-2h1.02z" fill="#338221"/><path d="M426.92 142l-14.85 14.85L396.92 142l15.15-14.85z" fill="#fff"/><path d="M428.33 142l-16.25 16.26-16.6-16.26 16.6-16.26zm-29.98 0l13.7 13.44L425.5 142l-13.44-13.44z" fill="#338221"/><path d="M292.65 323.9h-39.48v-3h39.48zm132.74 0h-38.05v-3h38.04z" fill="#d050b4"/><path d="M253.2 323.9h-1.53v-3h1.54zM428.33 322.4l-20.26 11.98-1.52-2.58 15.9-9.4-15.9-9.4 1.52-2.58z" fill="#d050b4"/><use xlink:href="#p" transform="matrix(1,0,0,1,292.65,311.60051480611884) translate(0 14.4)"/><path d="M405.57 462.5H601.8v82.66H405.58z" stroke="#000" fill-opacity="0"/><path d="M417.83 472.5h123.93v60H417.83z" fill="none"/><use xlink:href="#q" transform="matrix(1,0,0,1,417.83084657006526,472.4979720798253) translate(0 14.4)"/><use xlink:href="#r" transform="matrix(1,0,0,1,417.83084657006526,472.4979720798253) translate(73.9 14.4)"/><use xlink:href="#s" transform="matrix(1,0,0,1,417.83084657006526,472.4979720798253) translate(0 36)"/><use xlink:href="#t" transform="matrix(1,0,0,1,417.83084657006526,472.4979720798253) translate(0 57.6)"/><path d="M549.73 481.08h35.9M549.77 481.08h-1.54M585.6 481.08h1.54" stroke="#338221" stroke-width="3" fill="none"/><path d="M549.73 502.6h35.36M549.77 502.6h-1.54M585.05 502.6h1.54" stroke="#ef8d22" stroke-width="3" fill="none"/><path d="M549.73 524.13h35.9M549.77 524.13h-1.54M585.6 524.13h1.54" stroke="#d050b4" stroke-width="3" fill="none"/><defs><path d="M67-125c0 53 21 87 73 88 37 1 54-22 65-47l45 17C233-25 199 4 140 4 58 4 20-42 15-125 8-235 124-281 211-232c18 10 29 29 36 50l-46 12c-8-25-30-41-62-41-52 0-71 34-72 86" id="u"/><path d="M110-194c64 0 96 36 96 99 0 64-35 99-97 99-61 0-95-36-95-99 0-62 34-99 96-99zm-1 164c35 0 45-28 45-65 0-40-10-65-43-65-34 0-45 26-45 65 0 36 10 65 43 65" id="v"/><path d="M135-194c87-1 58 113 63 194h-50c-7-57 23-157-34-157-59 0-34 97-39 157H25l-1-190h47c2 12-1 28 3 38 12-26 28-41 61-42" id="w"/><path d="M137-138c1-29-70-34-71-4 15 46 118 7 119 86 1 83-164 76-172 9l43-7c4 19 20 25 44 25 33 8 57-30 24-41C81-84 22-81 20-136c-2-80 154-74 161-7" id="x"/><path d="M115-3C79 11 28 4 28-45v-112H4v-33h27l15-45h31v45h36v33H77v99c-1 23 16 31 38 25v30" id="y"/><path d="M135-150c-39-12-60 13-60 57V0H25l-1-190h47c2 13-1 29 3 40 6-28 27-53 61-41v41" id="z"/><path d="M85 4C-2 5 27-109 22-190h50c7 57-23 150 33 157 60-5 35-97 40-157h50l1 190h-47c-2-12 1-28-3-38-12 25-28 42-61 42" id="A"/><path d="M190-63c-7 42-38 67-86 67-59 0-84-38-90-98-12-110 154-137 174-36l-49 2c-2-19-15-32-35-32-30 0-35 28-38 64-6 74 65 87 74 30" id="B"/><g id="a"><use transform="matrix(0.05,0,0,0.05,0,0)" xlink:href="#u"/><use transform="matrix(0.05,0,0,0.05,12.950000000000001,0)" xlink:href="#v"/><use transform="matrix(0.05,0,0,0.05,23.900000000000002,0)" xlink:href="#w"/><use transform="matrix(0.05,0,0,0.05,34.85,0)" xlink:href="#x"/><use transform="matrix(0.05,0,0,0.05,44.85,0)" xlink:href="#y"/><use transform="matrix(0.05,0,0,0.05,50.800000000000004,0)" xlink:href="#z"/><use transform="matrix(0.05,0,0,0.05,57.800000000000004,0)" xlink:href="#A"/><use transform="matrix(0.05,0,0,0.05,68.75,0)" xlink:href="#B"/><use transform="matrix(0.05,0,0,0.05,78.75,0)" xlink:href="#y"/><use transform="matrix(0.05,0,0,0.05,84.7,0)" xlink:href="#x"/></g><path d="M27 0v-27h64v-190l-56 39v-29l58-41h29v221h61V0H27" id="C"/><use transform="matrix(0.05,0,0,0.05,0,0)" xlink:href="#C" id="b"/><path d="M33 0v-38h34V0H33" id="D"/><path d="M80-196l47-18 7 23-49 13 32 44-20 13-27-46-27 45-21-12 33-44-49-13 8-23 47 19-2-53h23" id="E"/><g id="c"><use transform="matrix(0.05,0,0,0.05,0,0)" xlink:href="#C"/><use transform="matrix(0.05,0,0,0.05,10,0)" xlink:href="#D"/><use transform="matrix(0.05,0,0,0.05,15,0)" xlink:href="#D"/><use transform="matrix(0.05,0,0,0.05,20,0)" xlink:href="#E"/></g><path d="M24-248c93 1 206-16 204 79-1 75-69 88-152 82V0H24v-248zm52 121c47 0 100 7 100-41 0-47-54-39-100-39v80" id="F"/><path d="M185-48c-13 30-37 53-82 52C43 2 14-33 14-96s30-98 90-98c62 0 83 45 84 108H66c0 31 8 55 39 56 18 0 30-7 34-22zm-45-69c5-46-57-63-70-21-2 6-4 13-4 21h74" id="G"/><path d="M88-194c31-1 46 15 58 34l-1-101h50l1 261h-48c-2-10 0-23-3-31C134-8 116 4 84 4 32 4 16-41 15-95c0-56 19-97 73-99zm17 164c33 0 40-30 41-66 1-37-9-64-41-64s-38 30-39 65c0 43 13 65 39 65" id="H"/><g id="e"><use transform="matrix(0.05,0,0,0.05,0,0)" xlink:href="#F"/><use transform="matrix(0.05,0,0,0.05,12,0)" xlink:href="#z"/><use transform="matrix(0.05,0,0,0.05,19,0)" xlink:href="#v"/><use transform="matrix(0.05,0,0,0.05,29.950000000000003,0)" xlink:href="#B"/><use transform="matrix(0.05,0,0,0.05,39.95,0)" xlink:href="#G"/><use transform="matrix(0.05,0,0,0.05,49.95,0)" xlink:href="#x"/><use transform="matrix(0.05,0,0,0.05,59.95,0)" xlink:href="#x"/><use transform="matrix(0.05,0,0,0.05,69.95,0)" xlink:href="#G"/><use transform="matrix(0.05,0,0,0.05,79.95,0)" xlink:href="#H"/></g><path d="M24-248c120-7 223 5 221 122C244-46 201 0 124 0H24v-248zM76-40c74 7 117-18 117-86 0-67-45-88-117-82v168" id="I"/><path d="M133-34C117-15 103 5 69 4 32 3 11-16 11-54c-1-60 55-63 116-61 1-26-3-47-28-47-18 1-26 9-28 27l-52-2c7-38 36-58 82-57s74 22 75 68l1 82c-1 14 12 18 25 15v27c-30 8-71 5-69-32zm-48 3c29 0 43-24 42-57-32 0-66-3-65 30 0 17 8 27 23 27" id="J"/><g id="f"><use transform="matrix(0.05,0,0,0.05,0,0)" xlink:href="#I"/><use transform="matrix(0.05,0,0,0.05,12.950000000000001,0)" xlink:href="#J"/><use transform="matrix(0.05,0,0,0.05,22.950000000000003,0)" xlink:href="#y"/><use transform="matrix(0.05,0,0,0.05,28.900000000000002,0)" xlink:href="#J"/></g><path d="M195-6C206 82 75 100 31 46c-4-6-6-13-8-21l49-6c3 16 16 24 34 25 40 0 42-37 40-79-11 22-30 35-61 35-53 0-70-43-70-97 0-56 18-96 73-97 30 0 46 14 59 34l2-30h47zm-90-29c32 0 41-27 41-63 0-35-9-62-40-62-32 0-39 29-40 63 0 36 9 62 39 62" id="K"/><g id="g"><use transform="matrix(0.05,0,0,0.05,0,0)" xlink:href="#G"/><use transform="matrix(0.05,0,0,0.05,10,0)" xlink:href="#K"/><use transform="matrix(0.05,0,0,0.05,20.950000000000003,0)" xlink:href="#G"/><use transform="matrix(0.05,0,0,0.05,30.950000000000003,0)" xlink:href="#x"/><use transform="matrix(0.05,0,0,0.05,40.95,0)" xlink:href="#y"/></g><path d="M25-224v-37h50v37H25zM25 0v-190h50V0H25" id="L"/><g id="h"><use transform="matrix(0.05,0,0,0.05,0,0)" xlink:href="#L"/><use transform="matrix(0.05,0,0,0.05,5,0)" xlink:href="#w"/><use transform="matrix(0.05,0,0,0.05,15.950000000000001,0)" xlink:href="#K"/><use transform="matrix(0.05,0,0,0.05,26.900000000000002,0)" xlink:href="#G"/><use transform="matrix(0.05,0,0,0.05,36.900000000000006,0)" xlink:href="#x"/><use transform="matrix(0.05,0,0,0.05,46.900000000000006,0)" xlink:href="#y"/></g><path d="M30-248c87 1 191-15 191 75 0 78-77 80-158 76V0H30v-248zm33 125c57 0 124 11 124-50 0-59-68-47-124-48v98" id="M"/><path d="M24-231v-30h32v30H24zM24 0v-190h32V0H24" id="N"/><path d="M115-194c55 1 70 41 70 98S169 2 115 4C84 4 66-9 55-30l1 105H24l-1-265h31l2 30c10-21 28-34 59-34zm-8 174c40 0 45-34 45-75s-6-73-45-74c-42 0-51 32-51 76 0 43 10 73 51 73" id="O"/><path d="M100-194c63 0 86 42 84 106H49c0 40 14 67 53 68 26 1 43-12 49-29l28 8c-11 28-37 45-77 45C44 4 14-33 15-96c1-61 26-98 85-98zm52 81c6-60-76-77-97-28-3 7-6 17-6 28h103" id="P"/><path d="M24 0v-261h32V0H24" id="Q"/><path d="M117-194c89-4 53 116 60 194h-32v-121c0-31-8-49-39-48C34-167 62-67 57 0H25l-1-190h30c1 10-1 24 2 32 11-22 29-35 61-36" id="R"/><path d="M135-143c-3-34-86-38-87 0 15 53 115 12 119 90S17 21 10-45l28-5c4 36 97 45 98 0-10-56-113-15-118-90-4-57 82-63 122-42 12 7 21 19 24 35" id="S"/><g id="i"><use transform="matrix(0.05,0,0,0.05,0,0)" xlink:href="#M"/><use transform="matrix(0.05,0,0,0.05,12,0)" xlink:href="#N"/><use transform="matrix(0.05,0,0,0.05,15.949999999999998,0)" xlink:href="#O"/><use transform="matrix(0.05,0,0,0.05,25.950000000000003,0)" xlink:href="#P"/><use transform="matrix(0.05,0,0,0.05,35.95,0)" xlink:href="#Q"/><use transform="matrix(0.05,0,0,0.05,39.900000000000006,0)" xlink:href="#N"/><use transform="matrix(0.05,0,0,0.05,43.85000000000001,0)" xlink:href="#R"/><use transform="matrix(0.05,0,0,0.05,53.85,0)" xlink:href="#P"/><use transform="matrix(0.05,0,0,0.05,63.85,0)" xlink:href="#S"/></g><path d="M114-163C36-179 61-72 57 0H25l-1-190h30c1 12-1 29 2 39 6-27 23-49 58-41v29" id="T"/><path d="M100-194c62-1 85 37 85 99 1 63-27 99-86 99S16-35 15-95c0-66 28-99 85-99zM99-20c44 1 53-31 53-75 0-43-8-75-51-75s-53 32-53 75 10 74 51 75" id="U"/><path d="M96-169c-40 0-48 33-48 73s9 75 48 75c24 0 41-14 43-38l32 2c-6 37-31 61-74 61-59 0-76-41-82-99-10-93 101-131 147-64 4 7 5 14 7 22l-32 3c-4-21-16-35-41-35" id="V"/><g id="j"><use transform="matrix(0.05,0,0,0.05,0,0)" xlink:href="#M"/><use transform="matrix(0.05,0,0,0.05,12,0)" xlink:href="#T"/><use transform="matrix(0.05,0,0,0.05,17.95,0)" xlink:href="#U"/><use transform="matrix(0.05,0,0,0.05,27.950000000000003,0)" xlink:href="#V"/><use transform="matrix(0.05,0,0,0.05,36.95,0)" xlink:href="#P"/><use transform="matrix(0.05,0,0,0.05,46.95,0)" xlink:href="#S"/><use transform="matrix(0.05,0,0,0.05,55.95,0)" xlink:href="#S"/><use transform="matrix(0.05,0,0,0.05,64.95,0)" xlink:href="#U"/><use transform="matrix(0.05,0,0,0.05,74.95,0)" xlink:href="#T"/></g><path d="M205 0l-28-72H64L36 0H1l101-248h38L239 0h-34zm-38-99l-47-123c-12 45-31 82-46 123h93" id="W"/><path d="M141-36C126-15 110 5 73 4 37 3 15-17 15-53c-1-64 63-63 125-63 3-35-9-54-41-54-24 1-41 7-42 31l-33-3c5-37 33-52 76-52 45 0 72 20 72 64v82c-1 20 7 32 28 27v20c-31 9-61-2-59-35zM48-53c0 20 12 33 32 33 41-3 63-29 60-74-43 2-92-5-92 41" id="X"/><path d="M179-190L93 31C79 59 56 82 12 73V49c39 6 53-20 64-50L1-190h34L92-34l54-156h33" id="Y"/><g id="k"><use transform="matrix(0.05,0,0,0.05,0,0)" xlink:href="#W"/><use transform="matrix(0.05,0,0,0.05,12,0)" xlink:href="#R"/><use transform="matrix(0.05,0,0,0.05,22,0)" xlink:href="#X"/><use transform="matrix(0.05,0,0,0.05,32,0)" xlink:href="#Q"/><use transform="matrix(0.05,0,0,0.05,35.95,0)" xlink:href="#Y"/><use transform="matrix(0.05,0,0,0.05,44.95,0)" xlink:href="#S"/><use transform="matrix(0.05,0,0,0.05,53.95,0)" xlink:href="#N"/><use transform="matrix(0.05,0,0,0.05,57.900000000000006,0)" xlink:href="#S"/></g><path d="M30-248c118-7 216 8 213 122C240-48 200 0 122 0H30v-248zM63-27c89 8 146-16 146-99s-60-101-146-95v194" id="Z"/><path d="M59-47c-2 24 18 29 38 22v24C64 9 27 4 27-40v-127H5v-23h24l9-43h21v43h35v23H59v120" id="aa"/><g id="l"><use transform="matrix(0.05,0,0,0.05,0,0)" xlink:href="#Z"/><use transform="matrix(0.05,0,0,0.05,12.950000000000001,0)" xlink:href="#X"/><use transform="matrix(0.05,0,0,0.05,22.950000000000003,0)" xlink:href="#aa"/><use transform="matrix(0.05,0,0,0.05,27.950000000000003,0)" xlink:href="#X"/><use transform="matrix(0.05,0,0,0.05,37.95,0)" xlink:href="#S"/><use transform="matrix(0.05,0,0,0.05,46.95,0)" xlink:href="#P"/><use transform="matrix(0.05,0,0,0.05,56.95,0)" xlink:href="#aa"/></g><path d="M33 0v-248h34V0H33" id="ab"/><path d="M84 4C-5 8 30-112 23-190h32v120c0 31 7 50 39 49 72-2 45-101 50-169h31l1 190h-30c-1-10 1-25-2-33-11 22-28 36-60 37" id="ac"/><g id="m"><use transform="matrix(0.05,0,0,0.05,0,0)" xlink:href="#ab"/><use transform="matrix(0.05,0,0,0.05,5,0)" xlink:href="#R"/><use transform="matrix(0.05,0,0,0.05,15,0)" xlink:href="#O"/><use transform="matrix(0.05,0,0,0.05,25,0)" xlink:href="#ac"/><use transform="matrix(0.05,0,0,0.05,35,0)" xlink:href="#aa"/></g><path d="M63-220v92h138v28H63V0H30v-248h175v28H63" id="ad"/><g id="n"><use transform="matrix(0.05,0,0,0.05,0,0)" xlink:href="#ad"/><use transform="matrix(0.05,0,0,0.05,10.950000000000001,0)" xlink:href="#N"/><use transform="matrix(0.05,0,0,0.05,14.9,0)" xlink:href="#Q"/><use transform="matrix(0.05,0,0,0.05,18.85,0)" xlink:href="#aa"/><use transform="matrix(0.05,0,0,0.05,23.85,0)" xlink:href="#P"/><use transform="matrix(0.05,0,0,0.05,33.85,0)" xlink:href="#T"/><use transform="matrix(0.05,0,0,0.05,39.800000000000004,0)" xlink:href="#S"/></g><path d="M30 0v-248h187v28H63v79h144v27H63v87h162V0H30" id="ae"/><path d="M108 0H70L1-190h34L89-25l56-165h34" id="af"/><path d="M210-169c-67 3-38 105-44 169h-31v-121c0-29-5-50-35-48C34-165 62-65 56 0H25l-1-190h30c1 10-1 24 2 32 10-44 99-50 107 0 11-21 27-35 58-36 85-2 47 119 55 194h-31v-121c0-29-5-49-35-48" id="ag"/><g id="o"><use transform="matrix(0.05,0,0,0.05,0,0)" xlink:href="#ae"/><use transform="matrix(0.05,0,0,0.05,12,0)" xlink:href="#R"/><use transform="matrix(0.05,0,0,0.05,22,0)" xlink:href="#af"/><use transform="matrix(0.05,0,0,0.05,31,0)" xlink:href="#N"/><use transform="matrix(0.05,0,0,0.05,34.95,0)" xlink:href="#T"/><use transform="matrix(0.05,0,0,0.05,40.900000000000006,0)" xlink:href="#U"/><use transform="matrix(0.05,0,0,0.05,50.900000000000006,0)" xlink:href="#R"/><use transform="matrix(0.05,0,0,0.05,60.900000000000006,0)" xlink:href="#ag"/><use transform="matrix(0.05,0,0,0.05,75.85000000000001,0)" xlink:href="#P"/><use transform="matrix(0.05,0,0,0.05,85.85000000000001,0)" xlink:href="#R"/><use transform="matrix(0.05,0,0,0.05,95.85000000000001,0)" xlink:href="#aa"/></g><path d="M121-226c-27-7-43 5-38 36h38v33H83V0H34v-157H6v-33h28c-9-59 32-81 87-68v32" id="ah"/><g id="p"><use transform="matrix(0.05,0,0,0.05,0,0)" xlink:href="#u"/><use transform="matrix(0.05,0,0,0.05,12.950000000000001,0)" xlink:href="#v"/><use transform="matrix(0.05,0,0,0.05,23.900000000000002,0)" xlink:href="#w"/><use transform="matrix(0.05,0,0,0.05,34.85,0)" xlink:href="#ah"/><use transform="matrix(0.05,0,0,0.05,40.800000000000004,0)" xlink:href="#L"/><use transform="matrix(0.05,0,0,0.05,45.800000000000004,0)" xlink:href="#K"/><use transform="matrix(0.05,0,0,0.05,56.75,0)" xlink:href="#A"/><use transform="matrix(0.05,0,0,0.05,67.7,0)" xlink:href="#z"/><use transform="matrix(0.05,0,0,0.05,74.7,0)" xlink:href="#G"/><use transform="matrix(0.05,0,0,0.05,84.7,0)" xlink:href="#x"/></g><path d="M230 0l2-204L168 0h-37L68-204 70 0H24v-248h70l56 185 57-185h69V0h-46" id="ai"/><path d="M220-157c-53 9-28 100-34 157h-49v-107c1-27-5-49-29-50C55-147 81-57 75 0H25l-1-190h47c2 12-1 28 3 38 10-53 101-56 108 0 13-22 24-43 59-42 82 1 51 116 57 194h-49v-107c-1-25-5-48-29-50" id="aj"/><path d="M135-194c52 0 70 43 70 98 0 56-19 99-73 100-30 1-46-15-58-35L72 0H24l1-261h50v104c11-23 29-37 60-37zM114-30c31 0 40-27 40-66 0-37-7-63-39-63s-41 28-41 65c0 36 8 64 40 64" id="ak"/><g id="q"><use transform="matrix(0.05,0,0,0.05,0,0)" xlink:href="#ai"/><use transform="matrix(0.05,0,0,0.05,14.950000000000001,0)" xlink:href="#G"/><use transform="matrix(0.05,0,0,0.05,24.950000000000003,0)" xlink:href="#aj"/><use transform="matrix(0.05,0,0,0.05,40.95,0)" xlink:href="#ak"/><use transform="matrix(0.05,0,0,0.05,51.900000000000006,0)" xlink:href="#G"/><use transform="matrix(0.05,0,0,0.05,61.900000000000006,0)" xlink:href="#z"/></g><g id="r"><use transform="matrix(0.05,0,0,0.05,0,0)" xlink:href="#v"/><use transform="matrix(0.05,0,0,0.05,10.950000000000001,0)" xlink:href="#ah"/></g><g id="s"><use transform="matrix(0.05,0,0,0.05,0,0)" xlink:href="#I"/><use transform="matrix(0.05,0,0,0.05,12.950000000000001,0)" xlink:href="#J"/><use transform="matrix(0.05,0,0,0.05,22.950000000000003,0)" xlink:href="#y"/><use transform="matrix(0.05,0,0,0.05,28.900000000000002,0)" xlink:href="#J"/></g><path d="M24 0v-248h52V0H24" id="al"/><g id="t"><use transform="matrix(0.05,0,0,0.05,0,0)" xlink:href="#al"/><use transform="matrix(0.05,0,0,0.05,5,0)" xlink:href="#w"/><use transform="matrix(0.05,0,0,0.05,15.950000000000001,0)" xlink:href="#y"/><use transform="matrix(0.05,0,0,0.05,21.900000000000002,0)" xlink:href="#G"/><use transform="matrix(0.05,0,0,0.05,31.900000000000002,0)" xlink:href="#z"/><use transform="matrix(0.05,0,0,0.05,38.900000000000006,0)" xlink:href="#J"/><use transform="matrix(0.05,0,0,0.05,48.900000000000006,0)" xlink:href="#B"/><use transform="matrix(0.05,0,0,0.05,58.900000000000006,0)" xlink:href="#y"/><use transform="matrix(0.05,0,0,0.05,64.85000000000001,0)" xlink:href="#L"/><use transform="matrix(0.05,0,0,0.05,69.85000000000001,0)" xlink:href="#v"/><use transform="matrix(0.05,0,0,0.05,80.80000000000001,0)" xlink:href="#w"/></g></defs></g></svg>